<svg width="16" height="16" viewBox="0 0 16 16" fill="none" xmlns="http://www.w3.org/2000/svg">
<path d="M8 5.50247C8 5.37056 7.94772 5.24398 7.85465 5.15071C7.76159 5.05743 7.63537 5.00509 7.50376 5.00509H6.69736L7.84493 3.85493C7.91675 3.78652 7.96572 3.6975 7.98515 3.60012C8.00458 3.50274 7.99352 3.40171 7.95348 3.31088C7.91885 3.21944 7.85729 3.14072 7.77696 3.08519C7.69663 3.02966 7.60134 2.99995 7.50376 3H5.50329C5.43812 3 5.37359 3.01286 5.31338 3.03785C5.25318 3.06285 5.19848 3.09953 5.1524 3.14571C5.10632 3.1919 5.06976 3.24674 5.04483 3.30708C5.01989 3.36743 5.00705 3.43207 5.00705 3.49738C5.00705 3.5627 5.01989 3.62743 5.04483 3.68778C5.06976 3.74812 5.10632 3.80287 5.1524 3.84905C5.19848 3.89524 5.25318 3.93192 5.31338 3.95691C5.37359 3.98191 5.43812 3.99476 5.50329 3.99476H6.29418L5.14661 5.14492C5.07665 5.21453 5.02897 5.30351 5.00964 5.40039C4.99031 5.49728 5.00019 5.59775 5.03806 5.68898C5.07716 5.78044 5.14196 5.85852 5.22457 5.91371C5.30717 5.96891 5.40402 5.99876 5.50329 5.99976H7.48825C7.55471 6.00184 7.62091 5.99052 7.68292 5.96646C7.74493 5.9424 7.80147 5.90613 7.84921 5.85973C7.89695 5.81334 7.93489 5.75785 7.96079 5.69647C7.98669 5.63509 8.00003 5.56911 8 5.50247Z" fill="white"/>
<path d="M9.03979 2.68386C9.07339 2.7746 9.13313 2.85263 9.21108 2.90773C9.28903 2.96283 9.38149 2.99232 9.47618 2.99227H11.4173C11.4887 3.00516 11.562 3.00191 11.632 2.98267C11.7021 2.96342 11.7671 2.92868 11.8227 2.8809C11.8782 2.83313 11.9229 2.77344 11.9535 2.70608C11.9841 2.63873 12 2.56538 12 2.49106C12 2.41675 11.9841 2.34331 11.9535 2.27595C11.9229 2.2086 11.8782 2.14891 11.8227 2.10113C11.7671 2.05336 11.7021 2.01861 11.632 1.99937C11.562 1.98012 11.4887 1.97688 11.4173 1.98976H10.6499L11.7634 0.848398C11.8313 0.779317 11.8776 0.691023 11.8963 0.594877C11.9151 0.49873 11.9055 0.39903 11.8687 0.3085C11.8308 0.217739 11.7679 0.140253 11.6878 0.08548C11.6076 0.0307071 11.5137 0.00099407 11.4173 0H9.47618C9.36118 0.0207556 9.257 0.0823906 9.18193 0.174067C9.10687 0.265743 9.06572 0.381614 9.06572 0.5013C9.06572 0.620987 9.10687 0.736858 9.18193 0.828534C9.257 0.92021 9.36118 0.981845 9.47618 1.0026H10.2586L9.14513 2.14397C9.07543 2.21185 9.02791 2.30019 9.00906 2.39683C8.9902 2.49346 9.00094 2.59372 9.03979 2.68386Z" fill="white"/>
<path d="M14.6921 8H8.39098C8.02207 8 7.66827 8.16026 7.40741 8.44549C7.14655 8.73071 7 9.11754 7 9.52091V11.4981C7 11.564 7.01187 11.6292 7.03494 11.6901C7.058 11.751 7.09182 11.8064 7.13445 11.853C7.17707 11.8996 7.22767 11.9365 7.28336 11.9618C7.33905 11.987 7.39875 12 7.45903 12H15.9997V9.55126C16.0075 9.15799 15.8757 8.77671 15.6319 8.48744C15.3881 8.19818 15.0513 8.02351 14.6921 8Z" fill="white"/>
<path d="M5.6 10.9227V10.4641H0.945457V5.39091C0.925883 5.28139 0.867759 5.18214 0.781305 5.11065C0.694852 5.03916 0.585591 5 0.472723 5C0.359854 5 0.250594 5.03916 0.16414 5.11065C0.0776863 5.18214 0.0195733 5.28139 0 5.39091V15.6091C0.0195733 15.7186 0.0776863 15.8178 0.16414 15.8893C0.250594 15.9608 0.359854 16 0.472723 16C0.585591 16 0.694852 15.9608 0.781305 15.8893C0.867759 15.8178 0.925883 15.7186 0.945457 15.6091V14.176H15.0545V15.6091C15.0741 15.7186 15.1322 15.8178 15.2187 15.8893C15.3051 15.9608 15.4144 16 15.5273 16C15.6401 16 15.7494 15.9608 15.8358 15.8893C15.9223 15.8178 15.9804 15.7186 16 15.6091V12.3128H7.05454C6.67622 12.313 6.31271 12.168 6.04115 11.9085C5.76959 11.6489 5.61135 11.2953 5.6 10.9227Z" fill="white"/>
<path d="M6 8.5C6 8.79668 5.91202 9.08665 5.7472 9.33332C5.58238 9.57999 5.34811 9.77231 5.07402 9.88584C4.79993 9.99937 4.49833 10.029 4.20736 9.97117C3.91639 9.91329 3.64912 9.77042 3.43934 9.56065C3.22956 9.35087 3.0867 9.08358 3.02882 8.79261C2.97095 8.50164 3.00064 8.20006 3.11418 7.92597C3.22771 7.65188 3.41997 7.4176 3.66664 7.25278C3.91331 7.08796 4.20333 7 4.5 7C4.89782 7 5.27936 7.15806 5.56066 7.43936C5.84197 7.72067 6 8.10218 6 8.5Z" fill="white"/>
</svg>
