<svg width="14" height="14" viewBox="0 0 14 14" fill="none" xmlns="http://www.w3.org/2000/svg">
<path d="M13.5529 11.9478L8.13428 6.51076L1.68609 0H1.18485L1.07648 0.25826C0.813936 0.903938 0.702716 1.60149 0.751369 2.29713C0.785739 2.98615 1.07 3.63875 1.55062 4.13208L6.53577 9.1341L7.19956 8.46808L11.819 13.6604C12.0546 13.8706 12.3615 13.9823 12.6766 13.9724C12.9917 13.9626 13.2911 13.8319 13.5132 13.6073C13.7353 13.3828 13.8631 13.0813 13.8705 12.7651C13.8779 12.4488 13.7643 12.1418 13.5529 11.907V11.9478Z" fill="white"/>
<path d="M4.2329 8.01953L0.317921 11.9342C0.106596 12.1689 -0.00705542 12.476 0.000339494 12.7922C0.0077344 13.1085 0.135626 13.4099 0.357691 13.6345C0.579757 13.859 0.879125 13.9896 1.19425 13.9995C1.50937 14.0094 1.81628 13.8978 2.05189 13.6876L5.96687 9.75932L4.2329 8.01953Z" fill="white"/>
<path d="M13.3231 2.37854L11.1015 4.59412L10.5325 4.02326L12.7406 1.79408L12.1716 1.20961L10.0177 3.43879L9.43523 2.85424L11.6569 0.638665L11.0744 0.0541992L8.18892 2.9494C7.82474 3.30963 7.61153 3.79587 7.59288 4.30865C7.58213 4.43547 7.55006 4.55958 7.49805 4.67567L9.38103 6.56504C9.4979 6.51868 9.62135 6.49116 9.74679 6.48349C10.2569 6.46078 10.7401 6.24744 11.1015 5.88542L14.0004 2.97661L13.3231 2.37854Z" fill="white"/>
</svg>
