<svg width="17" height="19" viewBox="0 0 17 19" fill="none" xmlns="http://www.w3.org/2000/svg">
<path d="M15.6798 1.48987C15.4459 1.07857 15.1069 0.736844 14.6975 0.499634C14.2881 0.262424 13.823 0.138248 13.3498 0.139862V1.05988C13.6558 1.06135 13.9561 1.14302 14.2206 1.29675C14.4852 1.45048 14.7048 1.67089 14.8576 1.936C15.0104 2.20112 15.091 2.50166 15.0914 2.80765C15.0918 3.11364 15.0119 3.41438 14.8598 3.67987L11.8098 8.96988C11.6542 9.22873 11.4344 9.44294 11.1715 9.59164C10.9087 9.74035 10.6118 9.81848 10.3098 9.81848C10.0078 9.81848 9.71095 9.74035 9.4481 9.59164C9.18525 9.44294 8.96535 9.22873 8.8098 8.96988L5.7498 3.67987C5.59718 3.41351 5.51689 3.11186 5.51689 2.80487C5.51689 2.49788 5.59718 2.19623 5.7498 1.92987C5.90278 1.6649 6.12294 1.44495 6.38804 1.29221C6.65315 1.13946 6.95385 1.05933 7.25981 1.05988V0.109863C6.79382 0.116128 6.33739 0.242926 5.93492 0.477875C5.53244 0.712824 5.19763 1.04793 4.96306 1.45062C4.72849 1.85332 4.60215 2.30988 4.59633 2.77588C4.5905 3.24187 4.70536 3.70143 4.92979 4.10986L7.97981 9.39987C8.17423 9.74174 8.44175 10.0364 8.76329 10.2629C9.08482 10.4893 9.45242 10.642 9.8398 10.7099V13.2599C9.8398 15.7499 8.3698 17.7799 6.5598 17.7799C4.7498 17.7799 3.2798 15.7799 3.2798 13.2599V10.2599C3.85782 10.1422 4.37153 9.81397 4.7213 9.33896C5.07106 8.86395 5.23197 8.27597 5.1728 7.68906C5.11364 7.10214 4.83864 6.55812 4.40111 6.16248C3.96357 5.76683 3.39468 5.54776 2.80479 5.54776C2.2149 5.54776 1.64604 5.76683 1.20851 6.16248C0.770977 6.55812 0.495974 7.10214 0.436811 7.68906C0.377647 8.27597 0.538551 8.86395 0.888318 9.33896C1.23809 9.81397 1.7518 10.1422 2.32982 10.2599V13.2599C2.32982 16.2599 4.2298 18.7299 6.5598 18.7299C8.8898 18.7299 10.7898 16.2699 10.7898 13.2599V10.7099C11.1772 10.642 11.5448 10.4893 11.8663 10.2629C12.1879 10.0364 12.4554 9.74174 12.6498 9.39987L15.6998 4.10986C15.9238 3.70887 16.0398 3.25655 16.0363 2.79724C16.0328 2.33793 15.9099 1.8874 15.6798 1.48987Z" fill="white"/>
</svg>
