<svg width="15" height="15" viewBox="0 0 15 15" fill="none" xmlns="http://www.w3.org/2000/svg">
<path d="M11.7012 8.42725C11.0487 8.42725 10.4109 8.62001 9.86844 8.98112C9.32595 9.34224 8.90316 9.85551 8.65348 10.456C8.40379 11.0565 8.33844 11.7173 8.46572 12.3548C8.59301 12.9923 8.90721 13.5779 9.36857 14.0375C9.82992 14.4971 10.4177 14.8101 11.0576 14.9369C11.6975 15.0637 12.3608 14.9987 12.9636 14.7499C13.5664 14.5012 14.0816 14.0799 14.4441 13.5395C14.8066 12.999 15.0001 12.3637 15.0001 11.7137C15.0001 10.8421 14.6525 10.0062 14.0338 9.38983C13.4152 8.77351 12.5761 8.42725 11.7012 8.42725ZM11.7012 14.3607C11.1757 14.3607 10.662 14.2055 10.225 13.9146C9.78808 13.6237 9.44749 13.2103 9.24639 12.7266C9.04528 12.243 8.9927 11.7107 9.09522 11.1973C9.19774 10.6838 9.45078 10.2121 9.82238 9.84193C10.194 9.47174 10.6674 9.21961 11.1828 9.11748C11.6982 9.01534 12.2325 9.06776 12.718 9.26811C13.2035 9.46846 13.6185 9.80777 13.9104 10.2431C14.2024 10.6784 14.3583 11.1901 14.3583 11.7137C14.3448 12.4068 14.0589 13.067 13.5621 13.5524C13.0652 14.0379 12.3971 14.3097 11.7012 14.3096V14.3607Z" fill="white"/>
<path d="M12.7282 10.0385C12.6564 9.99539 12.5706 9.98197 12.4891 10.0011C12.4075 10.0202 12.3367 10.0703 12.2918 10.1408L10.6231 12.839C10.5997 12.8749 10.5837 12.9151 10.5762 12.9572C10.5687 12.9994 10.5698 13.0426 10.5794 13.0844C10.5889 13.1261 10.6068 13.1655 10.632 13.2003C10.6571 13.235 10.689 13.2643 10.7258 13.2865C10.7806 13.2995 10.8378 13.2995 10.8927 13.2865C10.9465 13.2836 10.9989 13.2682 11.0457 13.2415C11.0925 13.2149 11.1323 13.1777 11.1622 13.1331L12.8309 10.4349C12.8748 10.3614 12.8887 10.2739 12.8695 10.1906C12.8504 10.1072 12.7998 10.0344 12.7282 9.9873V10.0385Z" fill="white"/>
<path d="M2.56278 12.6984C2.43025 12.6186 2.31515 12.5132 2.22433 12.3883C2.13351 12.2634 2.06883 12.1216 2.03411 11.9713C1.99938 11.821 1.99533 11.6653 2.0222 11.5134C2.04907 11.3615 2.10631 11.2165 2.19052 11.0871C2.23648 11.0142 2.2515 10.9261 2.23224 10.8421C2.21298 10.7582 2.16104 10.6853 2.08785 10.6396C2.01466 10.5938 1.92618 10.5788 1.84193 10.598C1.75768 10.6172 1.68454 10.6689 1.63858 10.7418C1.38413 11.15 1.30114 11.6415 1.40755 12.1101C1.52068 12.5788 1.81014 12.9862 2.21618 13.2482C2.27125 13.2592 2.32798 13.2592 2.38305 13.2482C2.45281 13.2494 2.52109 13.228 2.5775 13.1871C2.63392 13.1463 2.67541 13.0882 2.69573 13.0217C2.71604 12.9552 2.71404 12.8839 2.69005 12.8186C2.66606 12.7534 2.62139 12.6977 2.56278 12.66V12.6984Z" fill="white"/>
<path d="M9.13418 2.16138C9.26537 2.24232 9.37916 2.34834 9.46898 2.47334C9.5588 2.59835 9.62287 2.73988 9.65748 2.8897C9.69209 3.03951 9.69657 3.19466 9.67064 3.34621C9.64471 3.49776 9.5889 3.64266 9.50643 3.77259C9.4625 3.84604 9.44865 3.93354 9.46777 4.01689C9.48689 4.10024 9.53751 4.17303 9.6091 4.22017C9.66417 4.23119 9.7209 4.23119 9.77598 4.22017C9.83104 4.22362 9.8859 4.21095 9.9338 4.18368C9.98171 4.15641 10.0206 4.11574 10.0455 4.06672C10.1745 3.86597 10.262 3.64158 10.3028 3.4067C10.3436 3.17182 10.3369 2.93117 10.2831 2.69891C10.2293 2.46664 10.1294 2.24742 9.98946 2.0541C9.84948 1.86078 9.67219 1.69729 9.46793 1.57316C9.39473 1.52737 9.30625 1.51241 9.222 1.5316C9.13775 1.55078 9.06462 1.60253 9.01866 1.67544C8.9727 1.74836 8.95768 1.83647 8.97694 1.9204C8.9962 2.00434 9.04814 2.07723 9.12133 2.12302L9.13418 2.16138Z" fill="white"/>
<path d="M8.55663 9.11762L11.2394 4.85931C11.4618 4.50703 11.6116 4.11413 11.6799 3.70355C11.7482 3.29298 11.7337 2.87297 11.6373 2.46803C11.4444 1.64906 10.9376 0.937731 10.2253 0.485961C9.72259 0.168029 9.1393 -0.000541407 8.54382 2.47346e-05C8.00163 -0.00211263 7.46795 0.134304 6.99377 0.396243C6.5196 0.658183 6.12077 1.03687 5.83541 1.49616L0.482834 10.0127C0.260405 10.365 0.110662 10.7579 0.0423416 11.1685C-0.0259788 11.5791 -0.0115041 11.9991 0.0849219 12.404C0.273991 13.2247 0.78164 13.9374 1.49685 14.3861C1.99958 14.704 2.58288 14.8726 3.17836 14.8721C3.72008 14.8718 4.25284 14.7343 4.7266 14.4726C5.20036 14.2109 5.59959 13.8335 5.88677 13.3759L8.55663 9.11762ZM6.33603 1.80309C6.56647 1.44055 6.88475 1.1416 7.26159 0.93377C7.63844 0.725944 8.06174 0.615931 8.49247 0.613845C8.96818 0.618604 9.43379 0.751122 9.84023 0.997459C10.4071 1.35787 10.8095 1.92549 10.9607 2.57831C11.1119 3.23114 11 3.91705 10.6489 4.4885L8.14591 8.47823L3.78165 5.75446L6.33603 1.80309ZM5.33483 13.0434C5.10439 13.4059 4.78607 13.7049 4.40923 13.9127C4.03238 14.1205 3.60909 14.2306 3.17836 14.2327C2.70264 14.2279 2.23703 14.0954 1.83059 13.849C1.26581 13.4866 0.866144 12.918 0.717358 12.2654C0.568572 11.6127 0.682526 10.9279 1.03477 10.358L3.60196 6.36828L7.95334 9.09202L5.33483 13.0434Z" fill="white"/>
</svg>
