<svg width="17" height="17" viewBox="0 0 17 17" fill="none" xmlns="http://www.w3.org/2000/svg">
<path d="M9.61195 6.39025C9.75145 6.39025 9.86452 6.27755 9.86452 6.1385C9.86452 5.99946 9.75145 5.88672 9.61195 5.88672C9.47245 5.88672 9.35938 5.99946 9.35938 6.1385C9.35938 6.27755 9.47245 6.39025 9.61195 6.39025Z" fill="white"/>
<path d="M10.2262 7.00158C10.3657 7.00158 10.4788 6.88884 10.4788 6.74979C10.4788 6.61075 10.3657 6.49805 10.2262 6.49805C10.0867 6.49805 9.97363 6.61075 9.97363 6.74979C9.97363 6.88884 10.0867 7.00158 10.2262 7.00158Z" fill="white"/>
<path d="M10.8278 7.6007C10.9673 7.6007 11.0804 7.48796 11.0804 7.34892C11.0804 7.20987 10.9673 7.09717 10.8278 7.09717C10.6883 7.09717 10.5752 7.20987 10.5752 7.34892C10.5752 7.48796 10.6883 7.6007 10.8278 7.6007Z" fill="white"/>
<path d="M8.74574 7.25304C8.88523 7.25304 8.99831 7.14034 8.99831 7.0013C8.99831 6.86225 8.88523 6.74951 8.74574 6.74951C8.60624 6.74951 8.49316 6.86225 8.49316 7.0013C8.49316 7.14034 8.60624 7.25304 8.74574 7.25304Z" fill="white"/>
<path d="M9.36003 7.85265C9.49953 7.85265 9.6126 7.73995 9.6126 7.60091C9.6126 7.46186 9.49953 7.34912 9.36003 7.34912C9.22053 7.34912 9.10742 7.46186 9.10742 7.60091C9.10742 7.73995 9.22053 7.85265 9.36003 7.85265Z" fill="white"/>
<path d="M9.96159 8.46398C10.1011 8.46398 10.2142 8.35124 10.2142 8.2122C10.2142 8.07315 10.1011 7.96045 9.96159 7.96045C9.8221 7.96045 9.70898 8.07315 9.70898 8.2122C9.70898 8.35124 9.8221 8.46398 9.96159 8.46398Z" fill="white"/>
<path d="M7.8805 8.11632C8.02 8.11632 8.13308 8.00362 8.13308 7.86458C8.13308 7.72554 8.02 7.61279 7.8805 7.61279C7.741 7.61279 7.62793 7.72554 7.62793 7.86458C7.62793 8.00362 7.741 8.11632 7.8805 8.11632Z" fill="white"/>
<path d="M8.49382 8.71593C8.63332 8.71593 8.74639 8.60323 8.74639 8.46419C8.74639 8.32514 8.63332 8.2124 8.49382 8.2124C8.35432 8.2124 8.24121 8.32514 8.24121 8.46419C8.24121 8.60323 8.35432 8.71593 8.49382 8.71593Z" fill="white"/>
<path d="M9.10706 9.32726C9.24656 9.32726 9.35967 9.21452 9.35967 9.07548C9.35967 8.93644 9.24656 8.82373 9.10706 8.82373C8.96757 8.82373 8.85449 8.93644 8.85449 9.07548C8.85449 9.21452 8.96757 9.32726 9.10706 9.32726Z" fill="white"/>
<path d="M7.01429 8.97961C7.15379 8.97961 7.26686 8.8669 7.26686 8.72786C7.26686 8.58882 7.15379 8.47607 7.01429 8.47607C6.87479 8.47607 6.76172 8.58882 6.76172 8.72786C6.76172 8.8669 6.87479 8.97961 7.01429 8.97961Z" fill="white"/>
<path d="M7.62761 9.57873C7.76711 9.57873 7.88018 9.46602 7.88018 9.32698C7.88018 9.18794 7.76711 9.0752 7.62761 9.0752C7.48811 9.0752 7.375 9.18794 7.375 9.32698C7.375 9.46602 7.48811 9.57873 7.62761 9.57873Z" fill="white"/>
<path d="M8.24085 10.1905C8.38035 10.1905 8.49346 10.0778 8.49346 9.93876C8.49346 9.79972 8.38035 9.68701 8.24085 9.68701C8.10136 9.68701 7.98828 9.79972 7.98828 9.93876C7.98828 10.0778 8.10136 10.1905 8.24085 10.1905Z" fill="white"/>
<path d="M6.15984 9.83064C6.29933 9.83064 6.41241 9.71794 6.41241 9.5789C6.41241 9.43985 6.29933 9.32715 6.15984 9.32715C6.02034 9.32715 5.90723 9.43985 5.90723 9.5789C5.90723 9.71794 6.02034 9.83064 6.15984 9.83064Z" fill="white"/>
<path d="M6.7614 10.442C6.9009 10.442 7.01397 10.3293 7.01397 10.1903C7.01397 10.0512 6.9009 9.93848 6.7614 9.93848C6.6219 9.93848 6.50879 10.0512 6.50879 10.1903C6.50879 10.3293 6.6219 10.442 6.7614 10.442Z" fill="white"/>
<path d="M7.37562 11.0538C7.51512 11.0538 7.62823 10.9411 7.62823 10.802C7.62823 10.663 7.51512 10.5503 7.37562 10.5503C7.23612 10.5503 7.12305 10.663 7.12305 10.802C7.12305 10.9411 7.23612 11.0538 7.37562 11.0538Z" fill="white"/>
<path d="M16.312 2.23099L14.7484 0.684508C14.2999 0.252348 13.7004 0.0107422 13.0766 0.0107422C12.4527 0.0107422 11.8533 0.252348 11.4047 0.684508L0.675937 11.3782C0.242361 11.8253 0 12.4228 0 13.0446C0 13.6664 0.242361 14.2639 0.675937 14.711L2.22753 16.2575C2.44689 16.487 2.70971 16.6708 3.00081 16.7984C3.29191 16.926 3.60551 16.9948 3.92345 17.0008C4.55035 16.995 5.15023 16.7455 5.59532 16.3054L16.3241 5.61175C16.7576 5.16466 17 4.56715 17 3.94534C17 3.32352 16.7576 2.72601 16.3241 2.27892L16.312 2.23099ZM15.9512 5.21611L5.22243 15.9099C4.87137 16.2547 4.39827 16.448 3.90539 16.448C3.4125 16.448 2.93944 16.2547 2.58838 15.9099L1.03679 14.3633C0.690824 14.0134 0.496886 13.5419 0.496886 13.0506C0.496886 12.5593 0.690824 12.0878 1.03679 11.7378L11.7655 1.03215C12.1179 0.685359 12.5934 0.491429 13.0886 0.492652C13.332 0.492319 13.573 0.539843 13.798 0.63241C14.0229 0.724977 14.2274 0.860787 14.3996 1.03215L15.9512 2.61463C16.1275 2.78368 16.2675 2.98671 16.3626 3.21135C16.4577 3.43599 16.5059 3.67759 16.5045 3.92141C16.4988 4.40887 16.2999 4.87426 15.9512 5.21611Z" fill="white"/>
<path d="M12.3427 6.6417L10.3582 4.66365C10.2094 4.52195 10.0106 4.44442 9.80489 4.44786C9.70484 4.44643 9.6055 4.46475 9.5126 4.50179C9.4197 4.53883 9.33508 4.59384 9.26362 4.66365L4.70509 9.20725C4.56174 9.35568 4.48009 9.55274 4.47656 9.75874C4.47819 9.96161 4.56036 10.1555 4.70509 10.2982L6.68967 12.2763C6.76022 12.3481 6.84445 12.4051 6.93739 12.444C7.03033 12.4829 7.13012 12.503 7.23093 12.503C7.33174 12.503 7.43153 12.4829 7.52447 12.444C7.6174 12.4051 7.70164 12.3481 7.77219 12.2763L12.3427 7.73269C12.4128 7.66147 12.468 7.57709 12.5051 7.48449C12.5423 7.3919 12.5607 7.29291 12.5592 7.1932C12.5623 7.09148 12.5447 6.99015 12.5075 6.89539C12.4703 6.80062 12.4142 6.71434 12.3427 6.6417ZM11.9819 7.38498L7.42338 11.9287C7.37045 11.9758 7.30194 12.0019 7.23093 12.0019C7.15992 12.0019 7.09141 11.9758 7.03848 11.9287L5.05391 9.95053C5.0277 9.92587 5.00681 9.89614 4.99254 9.86316C4.97826 9.83018 4.97092 9.79467 4.97092 9.75874C4.97092 9.72282 4.97826 9.68724 4.99254 9.65426C5.00681 9.62127 5.0277 9.59154 5.05391 9.56689L9.61244 5.02329C9.6366 4.99636 9.66626 4.97491 9.69947 4.96043C9.73267 4.94595 9.76865 4.93877 9.80489 4.93936C9.84124 4.93793 9.87745 4.94473 9.91078 4.95926C9.94412 4.9738 9.97368 4.9957 9.9973 5.02329L11.9819 7.00134C12.0331 7.05247 12.0632 7.12099 12.0661 7.1932C12.0633 7.23453 12.0524 7.2749 12.0338 7.31195C12.0152 7.34901 11.9894 7.38198 11.9578 7.40898L11.9819 7.38498Z" fill="white"/>
<path d="M7.82108 2.91327L5.58394 0.683434C5.13692 0.247758 4.53727 0.00265841 3.91206 8.27456e-05C3.60181 -0.00252506 3.29415 0.0565317 3.00708 0.173866C2.72001 0.2912 2.45932 0.464463 2.24022 0.683434L0.688633 2.22992C0.255056 2.67701 0.0126953 3.27452 0.0126953 3.89633C0.0126953 4.51815 0.255056 5.11566 0.688633 5.56275L2.9619 7.82851C3.00631 7.87369 3.06682 7.89954 3.13027 7.90044C3.17836 7.89897 3.22504 7.88384 3.26479 7.85683C3.30455 7.82982 3.33573 7.7921 3.35469 7.74802C3.37364 7.70394 3.37959 7.65537 3.37179 7.60805C3.364 7.56072 3.34277 7.5166 3.31068 7.48087L1.03745 5.21504C0.691718 4.86242 0.497535 4.38937 0.496184 3.89633C0.495851 3.65376 0.543493 3.41349 0.636364 3.18927C0.729234 2.96506 0.865526 2.76125 1.03745 2.58956L2.58904 1.03107C2.9401 0.686235 3.41316 0.492968 3.90604 0.492968C4.39893 0.492968 4.87203 0.686235 5.22308 1.03107L7.46027 3.27291C7.48396 3.29653 7.51208 3.3153 7.54304 3.32808C7.57399 3.34086 7.60717 3.3474 7.64068 3.3474C7.67418 3.3474 7.70736 3.34086 7.73831 3.32808C7.76927 3.3153 7.79739 3.29653 7.82108 3.27291C7.84478 3.24929 7.86358 3.2213 7.8764 3.19045C7.88922 3.15959 7.89582 3.12652 7.89582 3.09313C7.89582 3.05973 7.88922 3.02666 7.8764 2.99581C7.86358 2.96495 7.84478 2.93689 7.82108 2.91327Z" fill="white"/>
<path d="M16.3118 11.3774L14.0385 9.1116C14.0149 9.08798 13.9867 9.06928 13.9558 9.0565C13.9248 9.04372 13.8916 9.03711 13.8581 9.03711C13.8246 9.03711 13.7915 9.04372 13.7605 9.0565C13.7295 9.06928 13.7014 9.08798 13.6777 9.1116C13.654 9.13521 13.6352 9.16328 13.6224 9.19414C13.6096 9.22499 13.603 9.25806 13.603 9.29145C13.603 9.32485 13.6096 9.35792 13.6224 9.38877C13.6352 9.41963 13.654 9.44762 13.6777 9.47124L15.951 11.7371C16.1251 11.9088 16.2634 12.1132 16.3578 12.3385C16.4522 12.5639 16.5008 12.8057 16.5008 13.0498C16.5008 13.294 16.4522 13.5357 16.3578 13.7611C16.2634 13.9864 16.1251 14.1909 15.951 14.3626L14.3994 15.9091C14.0483 16.2539 13.5752 16.4472 13.0823 16.4472C12.5894 16.4472 12.1163 16.2539 11.7653 15.9091L9.45597 13.6073C9.40899 13.5626 9.3465 13.5376 9.28155 13.5376C9.21659 13.5376 9.15415 13.5626 9.10716 13.6073C9.0615 13.6561 9.03613 13.7204 9.03613 13.7871C9.03613 13.8539 9.0615 13.9181 9.10716 13.9669L11.4165 16.2567C11.6338 16.479 11.8939 16.6552 12.1812 16.7747C12.4685 16.8941 12.777 16.9545 13.0883 16.9521C13.7152 16.9463 14.3151 16.6968 14.7602 16.2567L16.3118 14.7103C16.7453 14.2632 16.9877 13.6657 16.9877 13.0438C16.9877 12.422 16.7453 11.8245 16.3118 11.3774Z" fill="white"/>
</svg>
