<svg width="17" height="7" viewBox="0 0 17 7" fill="none" xmlns="http://www.w3.org/2000/svg">
<path d="M0.440221 0.787532H1.50807C1.61832 0.787532 1.70967 0.811094 1.78212 0.858218C1.85772 0.90257 1.90812 0.963554 1.93332 1.04117L3.09567 4.63784C3.12402 4.72654 3.14922 4.82356 3.17127 4.9289C3.19647 5.03146 3.2201 5.14096 3.24215 5.25738C3.26735 5.14096 3.29412 5.03146 3.32247 4.9289C3.35397 4.82356 3.38705 4.72654 3.4217 4.63784L4.7636 1.04117C4.7888 0.977414 4.83762 0.919202 4.91007 0.866534C4.98567 0.813866 5.07702 0.787532 5.18412 0.787532H5.5574C5.66765 0.787532 5.759 0.811094 5.83145 0.858218C5.9039 0.90257 5.9543 0.963554 5.98265 1.04117L7.3151 4.63784C7.3844 4.81525 7.44425 5.01206 7.49465 5.22828C7.5167 5.12017 7.53875 5.01622 7.5608 4.91643C7.586 4.81663 7.6112 4.72377 7.6364 4.63784L8.79875 1.04117C8.8208 0.97187 8.86962 0.912272 8.94522 0.862376C9.02082 0.81248 9.11217 0.787532 9.21927 0.787532H10.2162L8.09472 6.8H6.94655L5.45345 2.6919C5.43455 2.63923 5.41407 2.5824 5.39202 2.52142C5.37312 2.46043 5.35422 2.39529 5.33532 2.32599C5.31642 2.39529 5.29595 2.46043 5.2739 2.52142C5.255 2.5824 5.2361 2.63923 5.2172 2.6919L3.70992 6.8H2.56175L0.440221 0.787532ZM15.663 5.38212C15.7323 5.38212 15.7921 5.40568 15.8425 5.45281L16.3434 5.93098C16.0662 6.23313 15.7244 6.46459 15.3181 6.62536C14.9149 6.78614 14.4298 6.86653 13.8628 6.86653C13.3556 6.86653 12.8989 6.7903 12.4925 6.63784C12.0893 6.48538 11.7444 6.27332 11.4577 6.00166C11.1711 5.73001 10.9506 5.40568 10.7962 5.02869C10.645 4.6517 10.5694 4.24006 10.5694 3.79377C10.5694 3.34193 10.6545 2.9289 10.8246 2.55468C10.9947 2.17769 11.2341 1.85337 11.5428 1.58171C11.8515 1.31005 12.22 1.09938 12.6484 0.949694C13.08 0.797234 13.5556 0.721004 14.0754 0.721004C14.5825 0.721004 15.0251 0.793076 15.4031 0.93722C15.7843 1.07859 16.1103 1.26709 16.3812 1.50271L15.9559 2.02246C15.9307 2.05572 15.8977 2.08483 15.8567 2.10978C15.8189 2.13472 15.7654 2.1472 15.6961 2.1472C15.6236 2.1472 15.5496 2.12225 15.474 2.07235C15.3984 2.02246 15.3023 1.9684 15.1858 1.91019C15.0692 1.85198 14.9212 1.79793 14.7416 1.74803C14.5652 1.69813 14.34 1.67319 14.0659 1.67319C13.7446 1.67319 13.4485 1.72308 13.1776 1.82287C12.9099 1.91989 12.6784 2.05988 12.4831 2.24283C12.2909 2.42578 12.1397 2.64893 12.0295 2.91227C11.9224 3.17284 11.8688 3.46667 11.8688 3.79377C11.8688 4.13195 11.9224 4.43271 12.0295 4.69605C12.1397 4.95939 12.2878 5.18115 12.4736 5.36133C12.6595 5.54151 12.8784 5.68011 13.1304 5.77713C13.3824 5.87138 13.6533 5.9185 13.9431 5.9185C14.1163 5.9185 14.2723 5.91019 14.4109 5.89356C14.5526 5.87692 14.6818 5.85059 14.7983 5.81455C14.918 5.77852 15.0298 5.73278 15.1338 5.67734C15.2409 5.61913 15.3464 5.54844 15.4504 5.46528C15.4819 5.44033 15.5149 5.42093 15.5496 5.40707C15.5842 5.39044 15.622 5.38212 15.663 5.38212Z" fill="white"/>
</svg>
