<?xml version="1.0" encoding="utf-8"?>
<!-- Generator: Adobe Illustrator 23.0.2, SVG Export Plug-In . SVG Version: 6.00 Build 0)  -->
<svg version="1.1" id="Calque_1" xmlns="http://www.w3.org/2000/svg" xmlns:xlink="http://www.w3.org/1999/xlink" x="0px" y="0px"
	 viewBox="0 0 449 319.7" style="enable-background:new 0 0 449 319.7;" xml:space="preserve">
<style type="text/css">
	.st0{opacity:0.5;fill:#0079E9;enable-background:new    ;}
	.st1{fill:none;stroke:#C0C0C0;stroke-miterlimit:10;}
	.st2{fill:none;stroke:#0079E9;stroke-miterlimit:10;}
	.st3{fill:#FFFFFF;}
	.st4{font-family:'ArialMT';}
	.st5{font-size:17.6px;}
	.st6{letter-spacing:-0.9;}
	.st7{letter-spacing:-1.8;}
	.st8{fill:#0079E9;}
	.st9{font-family:'Arial-BoldMT';}
	.st10{font-size:6.556px;}
	.st11{font-size:4.4px;}
</style>
<title>map-safejob</title>
<g id="Calque_3">
	<path class="st0" d="M203,49.5h108c0.5,0,1,0.9,1,2v30.3c0,1.1-0.4,2-1,2H203c-0.5,0-1-0.9-1-2V51.5
		C202.1,50.4,202.5,49.5,203,49.5z"/>
	<path class="st0" d="M313,49.4h113.5c0.6,0,1,0.9,1,2v30.3c0,1.1-0.5,2-1,2H313c-0.6,0-1-0.9-1-2V51.4
		C312,50.3,312.5,49.4,313,49.4z"/>
	<path class="st0" d="M323.5,96h39.6c1.1,0,2,0.9,2,2v30.8c0,1.1-0.9,2-2,2h-39.6c-1.1,0-2-0.9-2-2V98C321.5,96.9,322.4,96,323.5,96
		z"/>
	<path class="st0" d="M385.9,96.1h39.6c1.1,0,2,0.9,2,2v30.8c0,1.1-0.9,2-2,2h-39.6c-1.1,0-2-0.9-2-2V98.1
		C383.9,97,384.8,96.1,385.9,96.1z"/>
	<path class="st0" d="M323.5,238.2h39.6c1.1,0,2,0.9,2,2V271c0,1.1-0.9,2-2,2h-39.6c-1.1,0-2-0.9-2-2v-30.8
		C321.5,239.1,322.4,238.2,323.5,238.2z"/>
	<path class="st0" d="M266.5,238.2h39.6c1.1,0,2,0.9,2,2V271c0,1.1-0.9,2-2,2h-39.6c-1.1,0-2-0.9-2-2v-30.8
		C264.5,239.1,265.4,238.2,266.5,238.2z"/>
	<path class="st0" d="M385.9,238.2h39.6c1.1,0,2,0.9,2,2V271c0,1.1-0.9,2-2,2h-39.6c-1.1,0-2-0.9-2-2v-30.8
		C383.9,239.1,384.8,238.2,385.9,238.2z"/>
	<path class="st0" d="M142.1,73.8l15.4-64.5c0.3-1.1,1.3-1.7,2.4-1.5l34.3,8.2c1.1,0.3,1.7,1.3,1.5,2.4l-15.4,64.5
		c-0.3,1.1-1.3,1.7-2.4,1.5l-34.3-8.2C142.5,75.9,141.9,74.8,142.1,73.8z"/>
	<path class="st0" d="M204.1,141.7h102.1c1.1,0,2,0.9,2,2v80.5c0,1.1-0.9,2-2,2H204.1c-1.1,0-2-0.9-2-2v-80.5
		C202.1,142.6,203,141.7,204.1,141.7z"/>
	<path class="st1" d="M23.5,159.9L0.7,242.3c0,0,391.3,76.8,395.2,76.8s52.6,0,52.6,0L439,14.4c0,0-288.8-18.1-290.2-13
		S114,125.5,114,125.5l-71.6-14.1l-8,25"/>
	<path class="st2" d="M236.4,142.2h-32.3c-1.1,0-2,0.9-2,2v80.5c0,1.1,0.9,2,2,2h102.1c1.1,0,2-0.9,2-2v-80.5c0-1.1-0.9-2-2-2h-56.3
		"/>
	<path class="st1" d="M381.1,142.2h44.4c1.1,0,2,0.9,2,2v80.5c0,1.1-0.9,2-2,2H323.5c-1.1,0-2-0.9-2-2v-80.5c0-1.1,0.9-2,2-2h42.5"
		/>
	<path class="st1" d="M381.1,142.2"/>
	<line class="st1" x1="366" y1="142.2" x2="366.5" y2="142.2"/>
	<path class="st2" d="M365.1,115.2v13.6c0,1.1-0.9,2-2,2h-39.6c-1.1,0-2-0.9-2-2V98c0-1.1,0.9-2,2-2h39.6c1.1,0,2,0.9,2,2v12.5"/>
	<path class="st1" d="M365.1,115.2"/>
	<path class="st1" d="M365.1,112.9"/>
	<line class="st1" x1="365.1" y1="110.5" x2="365.1" y2="111.1"/>
	<path class="st1" d="M383.9,110.5"/>
	<path class="st2" d="M383.9,110.5V98c0-1.1,0.9-2,2-2h39.6c1.1,0,2,0.9,2,2v30.8c0,1.1-0.9,2-2,2h-39.6c-1.1,0-2-0.9-2-2v-12.5"/>
	<path class="st2" d="M408.2,238.2h17.4c1.1,0,2,0.9,2,2V271c0,1.1-0.9,2-2,2h-39.6c-1.1,0-2-0.9-2-2v-30.8c0-1.1,0.9-2,2-2h13.3"/>
	<path class="st1" d="M408.2,238.2"/>
	<line class="st1" x1="399.2" y1="238.2" x2="399.6" y2="238.2"/>
	<path class="st1" d="M202.1,60.8"/>
	<path class="st2" d="M391.1,49.3h34.5c1.1,0,2,0.9,2,2v30.8c0,1.1-0.9,2-2,2H204.1c-1.1,0-2-0.9-2-2V68.4"/>
	<path class="st1" d="M391.1,49.3"/>
	<line class="st1" x1="375.6" y1="49.3" x2="377" y2="49.3"/>
	<path class="st2" d="M202.1,60.8v-9.5c0-1.1,0.9-2,2-2h172.9"/>
	<line class="st1" x1="435.1" y1="284.4" x2="186" y2="278.6"/>
	<path class="st1" d="M435.1,284.4"/>
	<line class="st1" x1="447.3" y1="284.7" x2="442.9" y2="284.7"/>
	<polyline class="st1" points="26.5,187.6 127.2,208.5 114.9,264.7 	"/>
	<path class="st1" d="M169.2,247.8"/>
	<path class="st1" d="M308.1,109V98c0-1.1-0.9-2-2-2H149.4c-1.1,0-2,0.9-2,2v149.8h17.2"/>
	<path class="st1" d="M308.1,109"/>
	<line class="st1" x1="308.1" y1="114.7" x2="308.1" y2="112.8"/>
	<path class="st1" d="M169.2,247.8h22.6v-117h114.3c1.1,0,2-0.9,2-2v-14.1"/>
	<path class="st2" d="M343.5,238.2h19.6c1.1,0,2,0.9,2,2V271c0,1.1-0.9,2-2,2h-39.6c-1.1,0-2-0.9-2-2v-30.8c0-1.1,0.9-2,2-2h13.9"/>
	<path class="st1" d="M343.5,238.2"/>
	<line class="st1" x1="337.4" y1="238.2" x2="337.7" y2="238.2"/>
	<path class="st2" d="M288.4,238.2h17.7c1.1,0,2,0.9,2,2V271c0,1.1-0.9,2-2,2h-39.6c-1.1,0-2-0.9-2-2v-30.8c0-1.1,0.9-2,2-2h14.9"/>
	<path class="st1" d="M288.4,238.2"/>
	<line class="st1" x1="281.4" y1="238.2" x2="283" y2="238.2"/>
	<path class="st1" d="M156,79.3"/>
	<path class="st2" d="M156,79.3l-12.6-3.1c-1.1-0.3-1.7-1.3-1.5-2.4c0,0,0,0,0,0l15.8-64.6c0.3-1.1,1.3-1.7,2.4-1.5c0,0,0,0,0,0
		l34.3,8.4c1.1,0.3,1.7,1.3,1.5,2.4c0,0,0,0,0,0L180,83.2c-0.3,1.1-1.3,1.7-2.4,1.5c0,0,0,0,0,0l-15.4-3.8"/>
	<path class="st1" d="M233.5,23.4l-8.6-0.5c-1.1-0.1-1.9-1-1.9-2.1l1-18.3"/>
	<path class="st1" d="M233.5,23.4"/>
	<path class="st1" d="M252.1,4.1l-1,18.3c-0.1,1.1-1,1.9-2.1,1.9c0,0,0,0,0,0l-11.5-0.6"/>
	<polyline class="st1" points="286.3,22.6 286.3,37.3 439.7,37.3 	"/>
	<line class="st1" x1="286.3" y1="18" x2="286.3" y2="19.2"/>
	<line class="st1" x1="286.3" y1="5.6" x2="286.3" y2="18"/>
	<line class="st1" x1="147.4" y1="175.5" x2="157.3" y2="175.5"/>
	<line class="st1" x1="159.1" y1="175.5" x2="169.1" y2="175.5"/>
	<line class="st1" x1="170.8" y1="175.5" x2="180.7" y2="175.5"/>
	<line class="st1" x1="182.5" y1="175.5" x2="192.4" y2="175.5"/>
	<line class="st1" x1="231.8" y1="130.8" x2="231.8" y2="120.8"/>
	<line class="st1" x1="231.8" y1="118.4" x2="231.8" y2="108.7"/>
	<line class="st1" x1="231.8" y1="106.4" x2="231.8" y2="96.5"/>
	<line class="st2" x1="312" y1="83.8" x2="312" y2="73.9"/>
	<line class="st2" x1="312" y1="71.4" x2="312" y2="61.7"/>
	<line class="st2" x1="312" y1="59.4" x2="312" y2="49.5"/>
	<text transform="matrix(1.1364 0 0 1 240.6899 189.41)" class="st3 st4 st5 st6">2</text>
	<text transform="matrix(1.1364 0 0 1 250.6133 189.41)" class="st3 st4 st5"> </text>
	<text transform="matrix(1.1364 0 0 1 249.77 189.41)" class="st3 st4 st5">0</text>
	<text transform="matrix(1.1364 0 0 1 260.0933 189.41)" class="st3 st4 st5"> </text>
	<text transform="matrix(1.1364 0 0 1 259.25 189.41)" class="st3 st4 st5">7</text>
	<text transform="matrix(1.1364 0 0 1 154.9102 50.5502)" class="st3 st4 st5 st6">2</text>
	<text transform="matrix(1.1364 0 0 1 164.833 50.5502)" class="st3 st4 st5"> </text>
	<text transform="matrix(1.1364 0 0 1 163.9902 50.5502)" class="st3 st4 st5 st6">0</text>
	<text transform="matrix(1.1364 0 0 1 174.1133 50.5502)" class="st3 st4 st5"> </text>
	<text transform="matrix(1.1364 0 0 1 173.1499 50.5502)" class="st3 st4 st5">1</text>
	<text transform="matrix(1.1364 0 0 1 328.5703 118.3099)" class="st3 st4 st5 st6">2</text>
	<text transform="matrix(1.1364 0 0 1 338.4932 118.3099)" class="st3 st4 st5"> </text>
	<text transform="matrix(1.1364 0 0 1 337.6504 118.3099)" class="st3 st4 st5">0</text>
	<text transform="matrix(1.1364 0 0 1 348.5732 118.3099)" class="st3 st4 st5"> </text>
	<text transform="matrix(1.1364 0 0 1 347.79 118.3099)" class="st3 st4 st5">9</text>
	<text transform="matrix(1.1364 0 0 1 329.8799 261.0702)" class="st3 st4 st5 st7">2</text>
	<text transform="matrix(1.1364 0 0 1 338.6035 261.0702)" class="st3 st4 st5"> </text>
	<text transform="matrix(1.1364 0 0 1 337.8096 261.0702)" class="st3 st4 st5 st6">1</text>
	<text transform="matrix(1.1364 0 0 1 347.333 261.0702)" class="st3 st4 st5"> </text>
	<text transform="matrix(1.1364 0 0 1 346.4805 261.0702)" class="st3 st4 st5">5</text>
	<text transform="matrix(1.1364 0 0 1 272.7402 261.0702)" class="st3 st4 st5 st7">2</text>
	<text transform="matrix(1.1364 0 0 1 281.4629 261.0702)" class="st3 st4 st5"> </text>
	<text transform="matrix(1.1364 0 0 1 280.6699 261.0702)" class="st3 st4 st5 st6">1</text>
	<text transform="matrix(1.1364 0 0 1 290.5933 261.0702)" class="st3 st4 st5"> </text>
	<text transform="matrix(1.1364 0 0 1 289.6401 261.0702)" class="st3 st4 st5">8</text>
	<text transform="matrix(1.1364 0 0 1 392.2695 261.0702)" class="st3 st4 st5 st7">2</text>
	<text transform="matrix(1.1364 0 0 1 400.9932 261.0702)" class="st3 st4 st5"> </text>
	<text transform="matrix(1.1364 0 0 1 400.2002 261.0702)" class="st3 st4 st5 st6">1</text>
	<text transform="matrix(1.1364 0 0 1 409.9229 261.0702)" class="st3 st4 st5"> </text>
	<text transform="matrix(1.1364 0 0 1 408.9697 261.0702)" class="st3 st4 st5">9</text>
	<text transform="matrix(1.1364 0 0 1 392.3896 118.89)" class="st3 st4 st5 st7">2 </text>
	<text transform="matrix(1.1364 0 0 1 400.3203 118.89)" class="st3 st4 st5 st6">1</text>
	<text transform="matrix(1.1364 0 0 1 409.6426 118.89)" class="st3 st4 st5 st7"> </text>
	<text transform="matrix(1.1364 0 0 1 408.8496 118.89)" class="st3 st4 st5">2</text>
	<path class="st8" d="M231.7,6h9.9c1.1,0,2,0.9,2,2v9.9c0,1.1-0.9,2-2,2h-9.9c-1.1,0-2-0.9-2-2V8C229.7,6.9,230.6,6,231.7,6z"/>
	<path class="st8" d="M261.7,103.1h16.6c1.1,0,2,0.9,2,2v16.7c0,1.1-0.9,2-2,2h-16.6c-1.1,0-2-0.9-2-2v-16.7
		C259.7,104,260.6,103.1,261.7,103.1z"/>
	<path class="st8" d="M319,12.2h16.6c1.1,0,2,0.9,2,2v16.6c0,1.1-0.9,2-2,2H319c-1.1,0-2-0.9-2-2V14.2C317,13.1,317.9,12.2,319,12.2
		z"/>
	<text transform="matrix(1.1364 0 0 1 263.6201 116.1102)" class="st3 st9 st10">W</text>
	<text transform="matrix(1.1364 0 0 1 270.5771 116.1102)" class="st3 st9 st10"> </text>
	<text transform="matrix(1.1364 0 0 1 271.3701 116.1102)" class="st3 st9 st10">C</text>
	<path class="st8" d="M363.5,169.3H390c1.1,0,2,0.9,2,2v26.4c0,1.1-0.9,2-2,2h-26.5c-1.1,0-2-0.9-2-2v-26.4
		C361.5,170.2,362.4,169.3,363.5,169.3z"/>
	<path class="st8" d="M53,212h16.7c1.1,0,2,0.9,2,2v16.6c0,1.1-0.9,2-2,2H53c-1.1,0-2-0.9-2-2V214C51,212.9,51.9,212,53,212z"/>
	<path class="st3" d="M61,220.4c0-0.2-0.1-0.3-0.3-0.3h0h-0.5l0.7-0.7c0.1-0.1,0.1-0.2,0.1-0.3c0-0.1-0.2-0.2-0.3-0.2h-1.3
		c-0.2,0-0.3,0.1-0.3,0.3s0.1,0.3,0.3,0.3h0.5l-0.7,0.7c-0.1,0.1-0.1,0.2-0.1,0.3c0.1,0.1,0.2,0.2,0.3,0.2h1.3
		C60.8,220.7,61,220.6,61,220.4C61,220.4,61,220.4,61,220.4z"/>
	<path class="st3" d="M61.7,218.6c0,0.1,0.2,0.2,0.3,0.2h1.3c0.2,0,0.4-0.1,0.4-0.3c0-0.2-0.1-0.4-0.3-0.4c0,0-0.1,0-0.1,0h-0.5
		l0.7-0.7c0.1-0.1,0.1-0.2,0.1-0.3c-0.1-0.1-0.2-0.2-0.3-0.2h-1.3c-0.2,0-0.3,0.2-0.3,0.4c0,0.1,0.1,0.2,0.3,0.3h0.5l-0.7,0.7
		C61.6,218.3,61.6,218.5,61.7,218.6z"/>
	<path class="st3" d="M65.8,222h-4.5c-0.6,0-1,0.4-1,1v1.3c0,0.2,0.1,0.3,0.3,0.3c0,0,0,0,0,0h6.1V223
		C66.8,222.5,66.4,222.1,65.8,222z"/>
	<path class="st3" d="M59.7,224.3V224h-3.2v-3.5c0-0.2-0.2-0.3-0.4-0.3c-0.1,0-0.2,0.1-0.3,0.3v7.1c0,0.2,0.2,0.3,0.4,0.3
		c0.1,0,0.2-0.1,0.3-0.3v-1h9.7v1c0,0.2,0.2,0.3,0.4,0.3c0.1,0,0.2-0.1,0.3-0.3v-2.3h-6.2C60.1,225.3,59.7,224.9,59.7,224.3z"/>
	<path class="st3" d="M59.7,222.3c0,0.6-0.4,1-1,1s-1-0.4-1-1s0.4-1,1-1S59.7,221.8,59.7,222.3z"/>
	<path class="st3" d="M330.6,23.3c-1.4,0-2.6,1.2-2.6,2.6c0,1.4,1.2,2.6,2.6,2.6c1.4,0,2.6-1.2,2.6-2.6S332.1,23.3,330.6,23.3
		L330.6,23.3z M330.6,28c-1.1,0-2.1-0.9-2.1-2.1c0-1.1,0.9-2.1,2.1-2.1c1.1,0,2.1,0.9,2.1,2.1C332.7,27,331.8,27.9,330.6,28
		L330.6,28z"/>
	<path class="st3" d="M331.4,24.6c-0.1-0.1-0.3,0-0.3,0.1l-1.3,2.1c-0.1,0.1,0,0.3,0.1,0.3c0,0,0,0,0,0c0,0,0.1,0,0.1,0
		c0.1,0,0.2,0,0.2-0.1l1.3-2.1C331.6,24.8,331.6,24.6,331.4,24.6L331.4,24.6z"/>
	<path class="st3" d="M323.5,26.7L323.5,26.7c-0.4-0.3-0.6-0.8-0.3-1.2c0,0,0,0,0,0c0.1-0.1,0-0.3-0.1-0.3c-0.1-0.1-0.3,0-0.3,0.1
		c-0.2,0.3-0.3,0.7-0.2,1.1c0.1,0.4,0.3,0.7,0.6,0.9l0,0c0,0,0.1,0,0.1,0c0.1,0,0.3-0.1,0.3-0.2C323.6,26.8,323.6,26.7,323.5,26.7
		L323.5,26.7z"/>
	<path class="st3" d="M328.6,18.4L328.6,18.4c0.4,0.3,0.6,0.8,0.3,1.3c0,0,0,0,0,0c-0.1,0.1,0,0.3,0.1,0.4c0,0,0.1,0,0.1,0
		c0.1,0,0.2,0,0.2-0.1c0.4-0.7,0.2-1.5-0.4-1.9c0,0,0,0,0,0l0,0c-0.1-0.1-0.3,0-0.3,0.1C328.5,18.2,328.5,18.3,328.6,18.4
		L328.6,18.4z"/>
	<path class="st3" d="M328.2,23.9L328.2,23.9l2.1-3.3c0.4-0.6,0.5-1.2,0.3-1.9c-0.2-0.6-0.5-1.2-1.1-1.5l0,0
		c-0.4-0.2-0.8-0.4-1.3-0.4c-0.9,0-1.7,0.4-2.1,1.2l-4.2,6.7c-0.4,0.6-0.5,1.2-0.3,1.9c0.1,0.6,0.5,1.2,1.1,1.5l0,0
		c0.4,0.2,0.8,0.4,1.3,0.4c0.9,0,1.7-0.4,2.1-1.2L328.2,23.9L328.2,23.9z M326.5,18.1c0.4-0.6,1-0.9,1.7-0.9c0.4,0,0.7,0.1,1,0.3
		l0,0c0.9,0.6,1.2,1.8,0.6,2.7l-2,3.1l-3.4-2.1L326.5,18.1z M325.7,26.9c-0.4,0.6-1,0.9-1.7,0.9c-0.4,0-0.7-0.1-1-0.3l0,0
		c-0.9-0.6-1.2-1.8-0.6-2.7l2-3.1l3.4,2.1L325.7,26.9z"/>
	<path class="st8" d="M160,197.2h16.6c1.1,0,2,0.9,2,2v16.6c0,1.1-0.9,2-2,2H160c-1.1,0-2-0.9-2-2v-16.6
		C158,198.1,158.9,197.2,160,197.2z"/>
	<circle class="st3" cx="376.3" cy="175.9" r="1"/>
	<circle class="st3" cx="381.3" cy="175.9" r="1"/>
	<path class="st3" d="M384.2,176.7c-0.5-0.8-1.4-1.4-2.3-1.4v0.9c1,0,1.7,0.8,1.7,1.8c0,0.3-0.1,0.6-0.2,0.9l-3,5.3
		c-0.5,0.8-1.6,1.1-2.4,0.6c-0.2-0.1-0.5-0.4-0.6-0.6l-3.1-5.3c-0.3-0.5-0.3-1.2,0-1.8c0.3-0.5,0.9-0.9,1.5-0.9v-1
		c-1.5,0-2.7,1.2-2.7,2.7c0,0.4,0.1,0.9,0.3,1.3l3,5.3c0.4,0.7,1.1,1.2,1.9,1.3v2.5c0,2.5-1.5,4.5-3.3,4.5s-3.3-2-3.3-4.5v-3
		c1.3-0.3,2.1-1.5,1.9-2.8c-0.3-1.3-1.5-2.1-2.8-1.9c-1.3,0.3-2.1,1.5-1.9,2.8c0.2,0.9,0.9,1.7,1.9,1.9v3c0,3,1.9,5.5,4.2,5.5
		s4.2-2.5,4.2-5.5V186c0.8-0.1,1.5-0.6,1.9-1.3l3-5.3C384.7,178.6,384.7,177.6,384.2,176.7z"/>
	<path class="st3" d="M173.3,211.1l-4-4l-4.8-4.8h-0.4l-0.1,0.2c-0.2,0.5-0.3,1-0.2,1.5c0,0.5,0.2,1,0.6,1.3l3.7,3.7l0.5-0.5
		l3.4,3.8c0.4,0.3,1,0.3,1.3-0.1C173.6,211.9,173.6,211.4,173.3,211.1L173.3,211.1z"/>
	<path class="st3" d="M166.4,208.2l-2.9,2.9c-0.3,0.4-0.3,0.9,0.1,1.3c0.3,0.3,0.9,0.3,1.2,0l2.9-2.9L166.4,208.2z"/>
	<path class="st3" d="M173.1,204.1l-1.6,1.6l-0.4-0.4l1.6-1.6l-0.4-0.4l-1.6,1.6l-0.4-0.4l1.6-1.6l-0.4-0.4l-2.1,2.1
		c-0.3,0.3-0.4,0.6-0.4,1c0,0.1,0,0.2-0.1,0.3l1.4,1.4c0.1,0,0.2-0.1,0.3-0.1c0.4,0,0.7-0.2,1-0.4l2.1-2.1L173.1,204.1z"/>
	<text transform="matrix(1.1364 0 0 1 232.3501 14.7801)" class="st3 st9 st11">W</text>
	<text transform="matrix(1.1364 0 0 1 237.0693 14.7801)" class="st3 st9 st11"> </text>
	<text transform="matrix(1.1364 0 0 1 237.5898 14.7801)" class="st3 st9 st11">C</text>
	<text transform="matrix(1.1364 0 0 1 240.6899 72.16)" class="st3 st4 st5 st6">2</text>
	<text transform="matrix(1.1364 0 0 1 250.6133 72.16)" class="st3 st4 st5"> </text>
	<text transform="matrix(1.1364 0 0 1 249.77 72.16)" class="st3 st4 st5">0</text>
	<text transform="matrix(1.1364 0 0 1 260.0933 72.16)" class="st3 st4 st5"> </text>
	<text transform="matrix(1.1364 0 0 1 259.2598 72.16)" class="st3 st4 st5">2</text>
	<text transform="matrix(1.1364 0 0 1 351.9697 72.0702)" class="st3 st4 st5 st6">2</text>
	<text transform="matrix(1.1364 0 0 1 361.8926 72.0702)" class="st3 st4 st5"> </text>
	<text transform="matrix(1.1364 0 0 1 361.0498 72.0702)" class="st3 st4 st5">0</text>
	<text transform="matrix(1.1364 0 0 1 371.5732 72.0702)" class="st3 st4 st5"> </text>
	<text transform="matrix(1.1364 0 0 1 370.7803 72.0702)" class="st3 st4 st5">3</text>
	<path class="st8" d="M403.3,287.1h22.2c1.1,0,2,0.9,2,2v22.2c0,1.1-0.9,2-2,2h-22.2c-1.1,0-2-0.9-2-2v-22.2
		C401.3,288,402.2,287.1,403.3,287.1z"/>
	<circle class="st3" cx="415.4" cy="298.3" r="0.2"/>
	<circle class="st3" cx="415.9" cy="298.8" r="0.2"/>
	<circle class="st3" cx="416.4" cy="299.3" r="0.2"/>
	<circle class="st3" cx="414.7" cy="299" r="0.2"/>
	<circle class="st3" cx="415.2" cy="299.5" r="0.2"/>
	<circle class="st3" cx="415.7" cy="300" r="0.2"/>
	<circle class="st3" cx="413.9" cy="299.7" r="0.2"/>
	<circle class="st3" cx="414.5" cy="300.2" r="0.2"/>
	<circle class="st3" cx="415" cy="300.7" r="0.2"/>
	<circle class="st3" cx="413.2" cy="300.4" r="0.2"/>
	<circle class="st3" cx="413.7" cy="300.9" r="0.2"/>
	<circle class="st3" cx="414.2" cy="301.4" r="0.2"/>
	<circle class="st3" cx="412.5" cy="301.1" r="0.2"/>
	<circle class="st3" cx="413" cy="301.6" r="0.2"/>
	<circle class="st3" cx="413.5" cy="302.1" r="0.2"/>
	<path class="st3" d="M420.9,295l-1.3-1.3c-0.8-0.7-2-0.7-2.8,0l-8.9,8.9c-0.7,0.8-0.7,2,0,2.8l1.3,1.3c0.4,0.4,0.9,0.6,1.4,0.6
		c0.5,0,1-0.2,1.4-0.6l8.9-8.9C421.7,297,421.7,295.8,420.9,295L420.9,295z M420.6,297.5l-8.9,8.9c-0.6,0.6-1.6,0.6-2.2,0l-1.3-1.3
		c-0.6-0.6-0.6-1.6,0-2.2l8.9-8.9c0.3-0.3,0.7-0.5,1.1-0.5c0.4,0,0.8,0.2,1.1,0.5l1.3,1.3c0.3,0.3,0.5,0.7,0.5,1.1
		C421.1,296.8,420.9,297.2,420.6,297.5z"/>
	<path class="st3" d="M417.6,298.7L416,297c-0.1-0.1-0.3-0.2-0.5-0.2c-0.2,0-0.3,0.1-0.5,0.2l-3.8,3.8c-0.1,0.1-0.2,0.3-0.2,0.5
		c0,0.2,0.1,0.3,0.2,0.5l1.6,1.7c0.2,0.2,0.6,0.3,0.9,0c0,0,0,0,0,0l3.8-3.8c0.1-0.1,0.2-0.3,0.2-0.5
		C417.8,299,417.8,298.8,417.6,298.7z M417.4,299.3l-3.8,3.8c-0.1,0.1-0.2,0.1-0.3,0l-1.6-1.7c-0.1-0.1-0.1-0.2,0-0.3c0,0,0,0,0,0
		l3.8-3.8c0,0,0.1-0.1,0.2-0.1c0.1,0,0.1,0,0.2,0.1l1.6,1.7c0,0,0.1,0.1,0.1,0.2C417.4,299.2,417.4,299.3,417.4,299.3L417.4,299.3z"
		/>
	<path class="st3" d="M413.9,295.6l-1.9-1.9c-0.4-0.4-0.9-0.6-1.4-0.6c-0.5,0-1,0.2-1.4,0.6L408,295c-0.7,0.8-0.7,2,0,2.8l1.9,1.9
		c0,0,0.1,0.1,0.1,0.1c0.1,0,0.2-0.1,0.2-0.2c0,0,0-0.1-0.1-0.1l-1.9-1.9c-0.3-0.3-0.4-0.7-0.5-1.1c0-0.4,0.2-0.8,0.5-1.1l1.3-1.3
		c0.6-0.6,1.6-0.6,2.2,0l1.9,1.9c0.1,0.1,0.2,0.1,0.3,0S414,295.7,413.9,295.6L413.9,295.6z"/>
	<path class="st3" d="M420.9,302.6l-1.9-1.9c-0.1-0.1-0.2-0.1-0.3,0s-0.1,0.2,0,0.3l1.9,1.9c0.6,0.6,0.6,1.6,0,2.2c0,0,0,0,0,0
		l-1.3,1.3c-0.6,0.6-1.6,0.6-2.2,0l-1.9-1.9c-0.1-0.1-0.2-0.1-0.3,0c-0.1,0.1-0.1,0.2,0,0.3l1.9,1.9c0.4,0.4,0.9,0.6,1.4,0.6
		c0.5,0,1-0.2,1.4-0.6l1.3-1.3C421.7,304.6,421.7,303.4,420.9,302.6z"/>
	<path class="st8" d="M163.1,108h16.6c1.1,0,2,0.9,2,2v16.6c0,1.1-0.9,2-2,2h-16.6c-1.1,0-2-0.9-2-2V110
		C161.1,108.9,162,108,163.1,108z"/>
	<path class="st3" d="M176.3,122l-4-4l-4.7-4.7h-0.4l-0.1,0.2c-0.2,0.5-0.3,1-0.2,1.5c0,0.5,0.2,1,0.6,1.4l3.7,3.7l0.5-0.5l3.4,3.8
		c0.3,0.4,0.9,0.4,1.3,0.1s0.4-0.9,0.1-1.3C176.4,122.1,176.4,122.1,176.3,122L176.3,122z"/>
	<path class="st3" d="M169.5,119.1l-2.9,2.9c-0.3,0.4-0.3,0.9,0.1,1.3c0.3,0.3,0.9,0.3,1.2,0l2.9-2.9L169.5,119.1z"/>
	<path class="st3" d="M176.2,114.9l-1.6,1.6l-0.4-0.4l1.6-1.6l-0.4-0.4l-1.7,1.6l-0.4-0.4l1.6-1.6l-0.4-0.4l-2.1,2.1
		c-0.3,0.3-0.4,0.6-0.4,1c0,0.1,0,0.2-0.1,0.3l1.4,1.4c0.1,0,0.2-0.1,0.3-0.1c0.4,0,0.7-0.2,1-0.4l2.1-2.1L176.2,114.9z"/>
</g>
</svg>
