<svg width="118" height="32" viewBox="0 0 118 32" fill="none" xmlns="http://www.w3.org/2000/svg">
<path d="M6.80492 31.24C5.69826 31.24 4.62492 31.0933 3.58492 30.8C2.55826 30.4933 1.73159 30.1 1.10492 29.62L2.20492 27.18C2.80492 27.62 3.51826 27.9733 4.34492 28.24C5.17159 28.5067 5.99826 28.64 6.82492 28.64C7.74492 28.64 8.42492 28.5067 8.86492 28.24C9.30492 27.96 9.52492 27.5933 9.52492 27.14C9.52492 26.8067 9.39159 26.5333 9.12492 26.32C8.87159 26.0933 8.53826 25.9133 8.12492 25.78C7.72492 25.6467 7.17826 25.5 6.48492 25.34C5.41826 25.0867 4.54492 24.8333 3.86492 24.58C3.18492 24.3267 2.59826 23.92 2.10492 23.36C1.62492 22.8 1.38492 22.0533 1.38492 21.12C1.38492 20.3067 1.60492 19.5733 2.04492 18.92C2.48492 18.2533 3.14492 17.7267 4.02492 17.34C4.91826 16.9533 6.00492 16.76 7.28492 16.76C8.17826 16.76 9.05159 16.8667 9.90492 17.08C10.7583 17.2933 11.5049 17.6 12.1449 18L11.1449 20.46C9.85159 19.7267 8.55826 19.36 7.26492 19.36C6.35826 19.36 5.68492 19.5067 5.24492 19.8C4.81826 20.0933 4.60492 20.48 4.60492 20.96C4.60492 21.44 4.85159 21.8 5.34492 22.04C5.85159 22.2667 6.61826 22.4933 7.64492 22.72C8.71159 22.9733 9.58492 23.2267 10.2649 23.48C10.9449 23.7333 11.5249 24.1333 12.0049 24.68C12.4983 25.2267 12.7449 25.9667 12.7449 26.9C12.7449 27.7 12.5183 28.4333 12.0649 29.1C11.6249 29.7533 10.9583 30.2733 10.0649 30.66C9.17159 31.0467 8.08492 31.24 6.80492 31.24ZM24.1788 28H17.6788L16.4388 31H13.1188L19.3588 17H22.5588L28.8188 31H25.4188L24.1788 28ZM23.1588 25.54L20.9388 20.18L18.7188 25.54H23.1588ZM33.5113 19.6V23.3H39.9913V25.9H33.5113V31H30.2713V17H40.8513V19.6H33.5113ZM53.8848 28.4V31H43.0448V17H53.6248V19.6H46.2648V22.64H52.7648V25.16H46.2648V28.4H53.8848ZM64.7068 31.24C63.7601 31.24 62.8868 31.0667 62.0868 30.72C61.3001 30.36 60.6535 29.8533 60.1468 29.2L61.9468 27.04C62.7068 28.0667 63.5735 28.58 64.5468 28.58C65.8668 28.58 66.5268 27.8067 66.5268 26.26V19.6H61.6068V17H69.7468V26.08C69.7468 27.8 69.3201 29.0933 68.4668 29.96C67.6135 30.8133 66.3601 31.24 64.7068 31.24ZM79.7271 31.24C78.2738 31.24 76.9604 30.9267 75.7871 30.3C74.6271 29.6733 73.7138 28.8133 73.0471 27.72C72.3938 26.6133 72.0671 25.3733 72.0671 24C72.0671 22.6267 72.3938 21.3933 73.0471 20.3C73.7138 19.1933 74.6271 18.3267 75.7871 17.7C76.9604 17.0733 78.2738 16.76 79.7271 16.76C81.1804 16.76 82.4871 17.0733 83.6471 17.7C84.8071 18.3267 85.7204 19.1933 86.3871 20.3C87.0538 21.3933 87.3871 22.6267 87.3871 24C87.3871 25.3733 87.0538 26.6133 86.3871 27.72C85.7204 28.8133 84.8071 29.6733 83.6471 30.3C82.4871 30.9267 81.1804 31.24 79.7271 31.24ZM79.7271 28.48C80.5538 28.48 81.3004 28.2933 81.9671 27.92C82.6338 27.5333 83.1538 27 83.5271 26.32C83.9138 25.64 84.1071 24.8667 84.1071 24C84.1071 23.1333 83.9138 22.36 83.5271 21.68C83.1538 21 82.6338 20.4733 81.9671 20.1C81.3004 19.7133 80.5538 19.52 79.7271 19.52C78.9004 19.52 78.1538 19.7133 77.4871 20.1C76.8204 20.4733 76.2938 21 75.9071 21.68C75.5338 22.36 75.3471 23.1333 75.3471 24C75.3471 24.8667 75.5338 25.64 75.9071 26.32C76.2938 27 76.8204 27.5333 77.4871 27.92C78.1538 28.2933 78.9004 28.48 79.7271 28.48ZM100.102 23.72C100.902 23.9733 101.529 24.4 101.982 25C102.435 25.5867 102.662 26.3133 102.662 27.18C102.662 28.4067 102.182 29.3533 101.222 30.02C100.275 30.6733 98.8888 31 97.0621 31H89.8221V17H96.6621C98.3688 17 99.6754 17.3267 100.582 17.98C101.502 18.6333 101.962 19.52 101.962 20.64C101.962 21.32 101.795 21.9267 101.462 22.46C101.142 22.9933 100.689 23.4133 100.102 23.72ZM93.0421 19.44V22.74H96.2621C97.0621 22.74 97.6688 22.6 98.0821 22.32C98.4954 22.04 98.7021 21.6267 98.7021 21.08C98.7021 20.5333 98.4954 20.1267 98.0821 19.86C97.6688 19.58 97.0621 19.44 96.2621 19.44H93.0421ZM96.8221 28.56C97.6754 28.56 98.3154 28.42 98.7421 28.14C99.1821 27.86 99.4021 27.4267 99.4021 26.84C99.4021 25.68 98.5421 25.1 96.8221 25.1H93.0421V28.56H96.8221Z" fill="#D94646"/>
<path d="M109 3.75V14.25" stroke="#D94646" stroke-width="3" stroke-linecap="square" stroke-linejoin="round"/>
<path d="M103.75 9H114.25" stroke="#D94646" stroke-width="3" stroke-linecap="square" stroke-linejoin="round"/>
</svg>
