<svg width="377" height="267" viewBox="0 0 377 267" fill="none" xmlns="http://www.w3.org/2000/svg">
<g clip-path="url(#clip0)">
<path opacity="0.1" d="M125.337 266.85C143.697 266.85 158.58 264.46 158.58 261.512C158.58 258.563 143.697 256.173 125.337 256.173C106.977 256.173 92.0939 258.563 92.0939 261.512C92.0939 264.46 106.977 266.85 125.337 266.85Z" fill="#0079E9"/>
<path opacity="0.1" d="M306.041 267C328.951 267 347.523 264.61 347.523 261.662C347.523 258.713 328.951 256.323 306.041 256.323C283.131 256.323 264.559 258.713 264.559 261.662C264.559 264.61 283.131 267 306.041 267Z" fill="#0079E9"/>
<path opacity="0.1" d="M4.72171 115.363H39.3465V162.549H7.25656C7.17127 163.033 7.08939 163.521 7.00068 164.009H39.3465V202.063C39.2885 202.046 39.2373 202.026 39.1827 202.005C38.2684 201.643 37.3609 201.261 36.4534 200.852L35.8734 200.589C34.9636 200.16 34.0539 199.705 33.1441 199.225C32.8268 199.058 32.5095 198.884 32.1957 198.707C27.145 195.878 22.5568 192.293 18.59 188.078C18.474 187.965 18.3649 187.846 18.2489 187.736C17.6962 187.136 17.1537 186.529 16.6283 185.908L16.0484 185.226C15.4274 184.465 14.827 183.684 14.2436 182.893C14.1583 182.777 14.0764 182.661 13.9877 182.552C11.6151 179.262 9.64505 175.701 8.1197 171.943C8.07194 171.831 8.031 171.708 7.98665 171.602C7.51812 170.397 7.10303 169.18 6.7414 167.952C6.58446 167.437 6.43435 166.929 6.30471 166.393C6.25695 166.236 6.216 166.083 6.17848 165.929C4.24066 158.367 4.01208 150.511 4.01208 142.71C4.01208 141.799 4.01208 140.885 4.01208 139.981C4.01208 136.826 4.04961 133.65 4.1042 130.478C4.1042 129.656 4.13832 128.837 4.15537 128.012C4.20314 125.917 4.27137 123.823 4.36007 121.728C4.38054 121.145 4.40784 120.565 4.43854 119.985C4.43854 119.651 4.4556 119.317 4.48972 118.982C4.57159 117.768 4.63983 116.564 4.72171 115.363Z" fill="#0079E9"/>
<path opacity="0.1" d="M39.3465 62.8255H20.3539C23.4412 57.994 26.8145 53.3512 30.4557 48.9219C33.2772 45.4562 36.2555 42.0793 39.3465 38.8251V62.8255Z" fill="#0079E9"/>
<path opacity="0.1" d="M39.3465 64.2855V113.903H4.83093C4.83093 113.76 4.85481 113.613 4.86505 113.47C4.89575 113.078 4.92646 112.686 4.96057 112.297C4.9981 111.84 5.03904 111.379 5.08339 110.932C5.12774 110.485 5.17551 109.94 5.22668 109.445C5.27786 108.95 5.32562 108.449 5.38362 107.954C5.44162 107.46 5.49279 106.965 5.5542 106.474C5.61561 105.983 5.6702 105.485 5.73502 104.994C5.78619 104.584 5.84078 104.178 5.89536 103.769C5.97383 103.192 6.05571 102.613 6.14441 102.04C6.14441 101.954 6.1683 101.866 6.18194 101.784C6.80463 97.5886 7.65309 93.4301 8.72361 89.3264C9.8442 85.0215 11.2751 80.8035 13.0052 76.7053C14.844 72.4182 16.9969 68.2726 19.4464 64.3026L39.3465 64.2855Z" fill="#0079E9"/>
<path opacity="0.1" d="M47.6129 115.36V162.549H121.567V115.36H47.6129ZM47.6129 164.005V204.529C48.036 204.618 48.4556 204.703 48.8718 204.775C49.4381 204.884 50.0011 204.983 50.5776 205.068C50.6868 205.085 50.7994 205.102 50.9188 205.112C51.144 205.15 51.376 205.181 51.6011 205.211C52.1709 205.29 52.7372 205.355 53.3069 205.406C53.5765 205.433 53.8494 205.457 54.1223 205.477L54.7808 205.529C55.139 205.556 55.4938 205.576 55.8452 205.587C56.0635 205.587 56.2819 205.607 56.5071 205.614C56.6776 205.614 56.8482 205.614 57.0256 205.614C57.203 205.614 57.4555 205.614 57.6704 205.614C57.9638 205.614 58.2572 205.614 58.5472 205.614H58.9396C59.233 205.614 59.5264 205.614 59.8164 205.587H59.8368C60.0381 205.587 60.2428 205.587 60.4475 205.559C60.5043 205.563 60.5613 205.563 60.6181 205.559C60.7887 205.559 60.9593 205.559 61.123 205.535H61.2424L62.3853 205.447C62.7606 205.413 63.1393 205.368 63.5214 205.327L64.2993 205.235C67.4638 204.792 70.5932 204.126 73.6642 203.243C80.5625 201.319 87.3108 198.628 94.2057 196.656C103.12 194.115 112.97 192.867 121.584 195.974V164.005H47.6129ZM121.567 62.8255V0.00338118C113.47 -0.0843261 105.396 0.862527 97.5389 2.82095C78.8124 7.52484 62.01 17.7274 47.6129 30.7578V62.8221H51.3248V64.2786H47.6129V113.903H121.567V64.282H66.5646V62.8255H121.567ZM216.557 41.6051C211.924 41.4414 207.319 39.9746 203.153 37.7096C195.187 33.3775 188.824 26.6884 181.714 21.043C166.942 9.28497 148.621 2.18989 129.827 0.429768V62.8255H235.4L235.663 62.5492L216.557 41.6051ZM226.175 39.8995L236.372 51.0879V36.966C232.957 37.389 229.965 38.3952 226.188 39.8859L226.175 39.8995ZM236.372 214.592V164.005H214.643C214.585 163.79 214.527 163.572 214.459 163.354C214.524 163.572 214.579 163.79 214.64 164.005H129.84V200.589C130.645 201.186 131.44 201.814 132.228 202.452C133.078 203.134 133.917 203.854 134.76 204.56L135.609 205.263C136.015 205.604 136.425 205.945 136.838 206.265C137.656 206.929 138.483 207.584 139.318 208.23C139.731 208.571 140.154 208.878 140.573 209.199C147.235 214.292 154.263 218.887 161.599 222.949C163.244 223.859 164.903 224.747 166.577 225.613C167.692 226.183 168.815 226.749 169.941 227.298C171.633 228.124 173.339 228.92 175.058 229.686C190.911 236.801 207.674 241.683 224.868 244.193C228.687 244.757 232.52 245.201 236.369 245.524V214.588H236.71L236.372 214.592ZM129.84 64.282V113.903H236.386V64.282H129.84ZM129.84 115.36V162.549H236.386V115.36H129.84ZM244.656 36.9046V52.657L257.671 38.3782C253.359 37.6823 249.02 37.1854 244.656 36.8875V36.9046ZM244.656 115.377V162.549H348.284V115.36L244.656 115.377ZM347.906 218.337L348.271 164.005H244.656V246.066C251.331 246.346 258.016 246.267 264.682 245.827H264.798C267.982 245.627 271.152 245.336 274.306 244.954H274.378C291.208 242.996 307.664 238.605 323.233 231.92L347.906 218.337ZM368.266 123.13C367.877 122.213 367.471 121.302 367.059 120.401C366.288 118.696 365.472 117.038 364.633 115.38H356.547V162.549H376.99C376.98 149.191 373.599 135.547 368.276 123.113L368.266 123.13ZM356.547 164.022V210.754C362.306 205.235 367.171 198.921 370.675 191.703C374.888 183.012 376.816 173.601 376.973 164.016L356.547 164.022ZM356.547 101.627V113.907H363.875C361.659 109.679 359.216 105.574 356.557 101.61L356.547 101.627ZM286.267 46.1623C285.728 45.9576 285.189 45.7496 284.647 45.5483C278.926 43.4359 273.08 41.6793 267.142 40.2884L247.225 62.1433L246.843 62.5492L247.098 62.8289H317.985C308.113 56.0342 297.469 50.4339 286.278 46.1453L286.267 46.1623ZM320.063 64.2991H246.109L244.656 65.6294V113.903H257.395H257.415H348.298V90.5202C340.077 80.5788 330.588 71.7577 320.073 64.282L320.063 64.2991Z" fill="#0079E9"/>
<path opacity="0.1" d="M39.3465 89.3127V113.903H4.83093C4.83093 113.76 4.85481 113.613 4.86505 113.47C4.89575 113.078 4.92646 112.686 4.96057 112.297C4.9981 111.84 5.03904 111.379 5.08339 110.932C5.12774 110.485 5.17551 109.94 5.22668 109.445C5.27786 108.95 5.32562 108.449 5.38362 107.954C5.44162 107.46 5.49279 106.965 5.5542 106.474C5.61561 105.983 5.6702 105.485 5.73502 104.994C5.78619 104.584 5.84078 104.178 5.89536 103.769C5.97383 103.192 6.05571 102.613 6.14441 102.04C6.14441 101.954 6.1683 101.866 6.18194 101.784C6.80463 97.5886 7.65309 93.4301 8.72361 89.3264L39.3465 89.3127Z" fill="#0079E9"/>
<path opacity="0.1" d="M4.72171 115.363H39.3465V162.549H7.25656C7.17127 163.033 7.08939 163.521 7.00068 164.009H39.3465V202.063C39.2885 202.046 39.2373 202.026 39.1827 202.005C38.2684 201.643 37.3609 201.261 36.4534 200.852L35.8734 200.589C34.9636 200.16 34.0539 199.705 33.1441 199.225C32.8268 199.058 32.5095 198.884 32.1957 198.707C27.145 195.878 22.5568 192.293 18.59 188.078C18.474 187.965 18.3649 187.846 18.2489 187.736C17.6962 187.136 17.1537 186.529 16.6283 185.908L16.0484 185.226C15.4274 184.465 14.827 183.684 14.2436 182.893C14.1583 182.777 14.0764 182.661 13.9877 182.552C11.6151 179.262 9.64505 175.701 8.1197 171.943C8.07194 171.831 8.031 171.708 7.98665 171.602C7.51812 170.397 7.10303 169.18 6.7414 167.952C6.58446 167.437 6.43435 166.929 6.30471 166.393C6.25695 166.236 6.216 166.083 6.17848 165.929C4.24066 158.367 4.01208 150.511 4.01208 142.71C4.01208 141.799 4.01208 140.885 4.01208 139.981C4.01208 136.826 4.04961 133.65 4.1042 130.478C4.1042 129.656 4.13832 128.837 4.15537 128.012C4.20314 125.917 4.27137 123.823 4.36007 121.728C4.38054 121.145 4.40784 120.565 4.43854 119.985C4.43854 119.651 4.4556 119.317 4.48972 118.982C4.57159 117.768 4.63983 116.564 4.72171 115.363Z" fill="#0079E9"/>
<path opacity="0.1" d="M73.6471 71.3874V113.903H47.6129V71.3874H51.3248V56.9926H66.5612V71.3874H73.6471Z" fill="#0079E9"/>
<path opacity="0.1" d="M73.6472 115.36H47.6163V162.546H73.6472V115.36Z" fill="#0079E9"/>
<path opacity="0.1" d="M47.6129 164.009H73.6471V203.236C70.5762 204.119 67.4467 204.783 64.2822 205.225L63.5043 205.321C63.1222 205.365 62.7435 205.402 62.3683 205.44C61.993 205.477 61.6041 205.505 61.2254 205.529H61.106C60.9422 205.529 60.7648 205.549 60.6044 205.553H60.4304C60.2257 205.553 60.0211 205.573 59.8164 205.58C59.5264 205.597 59.2364 205.6 58.9396 205.604C58.8133 205.604 58.6939 205.604 58.5677 205.604C58.2743 205.604 57.9843 205.604 57.6909 205.604H57.0461C56.8721 205.604 56.7049 205.604 56.5241 205.604L55.8657 205.58C55.5245 205.58 55.1561 205.542 54.8012 205.518L54.1462 205.471L53.3308 205.396C52.7577 205.344 52.1879 205.28 51.625 205.201L50.9427 205.106L50.6015 205.058C50.0318 204.969 49.4688 204.874 48.8957 204.765C48.4761 204.693 48.0598 204.604 47.6368 204.519L47.6129 164.009Z" fill="#0079E9"/>
<path opacity="0.1" d="M236.386 66.3662H214.92V113.9H236.386V66.3662Z" fill="#0079E9"/>
<path opacity="0.1" d="M236.389 115.36V162.549H129.84V142.195H186.593V154.202H214.92V115.36H236.389Z" fill="#0079E9"/>
<path opacity="0.1" d="M236.727 214.602H236.386V245.558C232.542 245.233 228.71 244.79 224.889 244.231C207.686 241.713 190.916 236.82 175.058 229.693C170.48 227.633 165.995 225.383 161.603 222.946C154.266 218.882 147.238 214.286 140.573 209.196C138.899 207.913 137.247 206.601 135.616 205.259C134.487 204.328 133.364 203.373 132.228 202.445C131.44 201.807 130.645 201.18 129.84 200.579V164.009H214.637C214.579 163.79 214.521 163.572 214.459 163.357C214.524 163.572 214.585 163.79 214.643 164.009H236.386V214.582C236.502 214.585 236.614 214.595 236.727 214.602Z" fill="#0079E9"/>
<path opacity="0.1" d="M292.371 62.8255H278.383V58.4798H284.654V45.5347C285.197 45.7325 285.739 45.936 286.278 46.1453V58.4798H292.371V62.8255Z" fill="#0079E9"/>
<path opacity="0.1" d="M326.071 113.903H257.402C257.402 113.903 257.402 113.903 257.425 113.92L257.395 113.903H244.656V66.3697H248.265V101.504H264.76V80.6963H278.387V64.2855H292.374V80.7099H306V101.518H326.071V113.903Z" fill="#0079E9"/>
<path opacity="0.1" d="M244.656 115.36V162.549H326.071V115.36H244.656ZM348.172 218.095L348.284 180.744H326.071V164.029H244.656V246.066C251.331 246.347 258.016 246.267 264.682 245.827H264.798C267.982 245.627 271.152 245.336 274.306 244.954H274.378C291.208 242.996 307.664 238.605 323.233 231.92" fill="#0079E9"/>
<path opacity="0.1" d="M357.994 164.009H376.986C376.819 173.591 374.895 183.002 370.685 191.693C367.181 198.915 362.313 205.228 356.561 210.744V180.727H357.994V164.009Z" fill="#0079E9"/>
<path opacity="0.1" d="M376.997 162.549H357.994V123.113H368.276C373.599 135.547 376.979 149.191 376.997 162.549Z" fill="#0079E9"/>
<path opacity="0.1" d="M236.389 79.5808H224.889V94.4839H236.389V79.5808Z" fill="#0079E9"/>
<path opacity="0.1" d="M236.389 110.472H224.889V113.903H236.389V110.472Z" fill="#0079E9"/>
<path opacity="0.1" d="M236.389 115.36H224.889V125.371H236.389V115.36Z" fill="#0079E9"/>
<path opacity="0.1" d="M236.389 141.363H224.889V156.266H236.389V141.363Z" fill="#0079E9"/>
<path opacity="0.1" d="M236.389 172.253H224.889V187.156H236.389V172.253Z" fill="#0079E9"/>
<path opacity="0.1" d="M236.386 214.582C236.502 214.582 236.614 214.582 236.727 214.602H236.386V218.064H224.889V203.144H236.386V214.582Z" fill="#0079E9"/>
<path opacity="0.1" d="M236.386 234.028V245.541C232.542 245.216 228.71 244.773 224.889 244.214V234.028H236.386Z" fill="#0079E9"/>
<path opacity="0.1" d="M179.128 161.454H129.84V162.549H179.128V161.454Z" fill="#0079E9"/>
<path opacity="0.1" d="M179.128 164.005H129.84V168.201H179.128V164.005Z" fill="#0079E9"/>
<path opacity="0.1" d="M179.128 181.955H129.84V188.702H179.128V181.955Z" fill="#0079E9"/>
<path opacity="0.1" d="M179.125 202.455V209.202H140.573C138.899 207.924 137.246 206.612 135.613 205.266C134.483 204.335 133.364 203.38 132.225 202.455H179.125Z" fill="#0079E9"/>
<path opacity="0.1" d="M179.125 222.952V229.693H175.055C170.481 227.63 165.997 225.38 161.603 222.942L179.125 222.952Z" fill="#0079E9"/>
<path opacity="0.1" d="M274.388 119.934H264.685V129.635H274.388V119.934Z" fill="#0079E9"/>
<path opacity="0.1" d="M64.306 74.7336H54.6033V84.4348H64.306V74.7336Z" fill="#0079E9"/>
<path opacity="0.1" d="M64.306 97.2673H54.6033V106.968H64.306V97.2673Z" fill="#0079E9"/>
<path opacity="0.1" d="M64.306 119.801H54.6033V129.502H64.306V119.801Z" fill="#0079E9"/>
<path opacity="0.1" d="M64.306 142.331H54.6033V152.032H64.306V142.331Z" fill="#0079E9"/>
<path opacity="0.1" d="M64.306 164.865H54.6033V174.566H64.306V164.865Z" fill="#0079E9"/>
<path opacity="0.1" d="M64.306 187.399H54.6033V197.1H64.306V187.399Z" fill="#0079E9"/>
<path opacity="0.1" d="M311.428 119.934H301.726V129.635H311.428V119.934Z" fill="#0079E9"/>
<path opacity="0.1" d="M274.388 143.863H264.685V153.564H274.388V143.863Z" fill="#0079E9"/>
<path opacity="0.1" d="M311.428 143.863H301.726V153.564H311.428V143.863Z" fill="#0079E9"/>
<path opacity="0.1" d="M274.388 167.788H264.685V177.489H274.388V167.788Z" fill="#0079E9"/>
<path opacity="0.1" d="M311.428 167.788H301.726V177.489H311.428V167.788Z" fill="#0079E9"/>
<path opacity="0.1" d="M274.388 191.717H264.685V201.418H274.388V191.717Z" fill="#0079E9"/>
<path opacity="0.1" d="M311.428 191.717H301.726V201.418H311.428V191.717Z" fill="#0079E9"/>
<path opacity="0.1" d="M274.388 215.646H264.685V225.347H274.388V215.646Z" fill="#0079E9"/>
<path opacity="0.1" d="M311.428 215.646H301.726V225.347H311.428V215.646Z" fill="#0079E9"/>
<path opacity="0.1" d="M264.685 245.827V239.571H274.385V244.937L264.685 245.827Z" fill="#0079E9"/>
<path opacity="0.1" d="M6.14099 101.777V107.327H39.3465V101.777H6.14099ZM9.45028 106.979H6.74144V102.118H9.47075L9.45028 106.979ZM12.7562 106.979H10.0268V102.118H12.7562V106.979ZM16.0552 106.979H13.3259V102.118H16.0552V106.979ZM19.3611 106.979H16.6352V102.118H19.3645L19.3611 106.979ZM22.6636 106.979H19.9343V102.118H22.6636V106.979ZM25.9694 106.979H23.2401V102.118H25.9694V106.979ZM29.2753 106.979H26.546V102.118H29.2753V106.979ZM32.5778 106.979H29.8485V102.118H32.5778V106.979ZM35.8803 106.979H33.1509V102.118H35.8803V106.979ZM39.1827 106.979H36.4534V102.118H39.1827V106.979Z" fill="#0079E9"/>
<path opacity="0.1" d="M6.14099 117.925V123.475H39.3465V117.925H6.14099ZM9.45028 123.123H6.74144V118.276H9.47075L9.45028 123.123ZM12.7562 123.123H10.0268V118.276H12.7562V123.123ZM16.0552 123.123H13.3259V118.276H16.0552V123.123ZM19.3611 123.123H16.6352V118.276H19.3645L19.3611 123.123ZM22.6636 123.123H19.9343V118.276H22.6636V123.123ZM25.9694 123.123H23.2401V118.276H25.9694V123.123ZM29.2753 123.123H26.546V118.276H29.2753V123.123ZM32.5778 123.123H29.8485V118.276H32.5778V123.123ZM35.8803 123.123H33.1509V118.276H35.8803V123.123ZM39.1827 123.123H36.4534V118.276H39.1827V123.123Z" fill="#0079E9"/>
<path opacity="0.1" d="M6.14099 134.08V139.64H39.3465V134.08H6.14099ZM9.45028 139.278H6.74144V134.428H9.47075L9.45028 139.278ZM12.7562 139.278H10.0268V134.428H12.7562V139.278ZM16.0552 139.278H13.3259V134.428H16.0552V139.278ZM19.3611 139.278H16.6352V134.428H19.3645L19.3611 139.278ZM22.6636 139.278H19.9343V134.428H22.6636V139.278ZM25.9694 139.278H23.2401V134.428H25.9694V139.278ZM29.2753 139.278H26.546V134.428H29.2753V139.278ZM32.5778 139.278H29.8485V134.428H32.5778V139.278ZM35.8803 139.278H33.1509V134.428H35.8803V139.278ZM39.1827 139.278H36.4534V134.428H39.1827V139.278Z" fill="#0079E9"/>
<path opacity="0.1" d="M6.14099 150.235V155.778H39.3465V150.235H6.14099ZM9.45028 155.433H6.74144V150.579H9.47075L9.45028 155.433ZM12.7562 155.433H10.0268V150.579H12.7562V155.433ZM16.0552 155.433H13.3259V150.579H16.0552V155.433ZM19.3611 155.433H16.6352V150.579H19.3645L19.3611 155.433ZM22.6636 155.433H19.9343V150.579H22.6636V155.433ZM25.9694 155.433H23.2401V150.579H25.9694V155.433ZM29.2753 155.433H26.546V150.579H29.2753V155.433ZM32.5778 155.433H29.8485V150.579H32.5778V155.433ZM35.8803 155.433H33.1509V150.579H35.8803V155.433ZM39.1827 155.433H36.4534V150.579H39.1827V155.433Z" fill="#0079E9"/>
<path opacity="0.1" d="M6.2843 166.386C6.41736 166.908 6.56747 167.43 6.7244 167.945V166.734H9.45371V171.585H7.99353C8.03788 171.697 8.08223 171.82 8.12659 171.926H39.3465V166.386H6.2843ZM12.7664 171.585H10.0371V166.734H12.7664V171.585ZM16.0655 171.585H13.3362V166.734H16.0655V171.585ZM19.3714 171.585H16.6352V166.734H19.3645L19.3714 171.585ZM22.6738 171.585H19.9445V166.734H22.6738V171.585ZM25.9797 171.585H23.2504V166.734H25.9797V171.585ZM29.2856 171.585H26.5563V166.734H29.2856V171.585ZM32.5881 171.585H29.8587V166.734H32.5881V171.585ZM35.8905 171.585H33.1612V166.734H35.8905V171.585ZM39.193 171.585H36.4637V166.734H39.193V171.585Z" fill="#0079E9"/>
<path opacity="0.1" d="M13.9945 182.541C14.0798 182.65 14.1617 182.773 14.2504 182.882H16.0551V185.212C16.2496 185.444 16.4407 185.676 16.6385 185.894V182.869H19.3678V187.736H18.2625C18.3716 187.849 18.4774 187.968 18.6036 188.077H39.3566V182.541H13.9945ZM22.6635 187.736H19.9342V182.889H22.6635V187.736ZM25.9694 187.736H23.2401V182.889H25.9694V187.736ZM29.2752 187.736H26.5459V182.889H29.2752V187.736ZM32.5777 187.736H29.8484V182.889H32.5777V187.736ZM35.8802 187.736H33.1509V182.889H35.8802V187.736ZM39.1827 187.736H36.4533V182.889H39.1827V187.736Z" fill="#0079E9"/>
<path opacity="0.1" d="M32.2094 198.693C32.5198 198.87 32.8371 199.034 33.1578 199.211V199.041H35.8871V200.576L36.4671 200.845V199.041H39.1964V201.991C39.2487 202.017 39.3036 202.038 39.3602 202.053V198.693H32.2094Z" fill="#0079E9"/>
<path opacity="0.1" d="M257.402 113.903H257.422H257.402ZM236.386 214.578H236.727H236.386ZM214.459 163.354C214.524 163.572 214.579 163.791 214.64 164.005C214.585 163.791 214.527 163.572 214.459 163.354ZM257.402 113.893H257.422H257.402ZM51.3384 62.8153V64.2718H66.5782V62.8153H51.3384ZM236.386 214.578H236.727H236.386ZM214.459 163.354C214.524 163.572 214.579 163.791 214.64 164.005C214.585 163.791 214.527 163.572 214.459 163.354ZM257.402 113.893H257.422H257.402ZM236.386 214.568H236.727H236.386ZM214.459 163.354C214.524 163.572 214.579 163.791 214.64 164.005C214.585 163.791 214.527 163.572 214.459 163.354Z" fill="#0079E9"/>
<path d="M157.481 129.509C157.481 129.509 156.137 129.321 156.137 127.364C156.137 125.406 155.175 121.749 155.175 121.749C155.175 121.732 154.343 115.38 153.193 114.371C152.043 113.361 150.566 107.432 150.566 107.432C150.566 107.432 150.313 104.216 149.798 103.523C149.283 102.831 148.587 101.136 147.56 98.7171C146.533 96.2987 142.252 94.6238 142.252 94.6238C142.252 94.6238 134.511 90.1348 132.317 88.6715C132.118 88.5512 131.931 88.4106 131.761 88.2519C131.379 87.7505 129.714 87.7402 129.714 87.7402C129.54 86.6419 129.373 85.3797 129.318 84.237C129.318 84.1142 129.318 83.9914 129.301 83.8686C131.747 82.423 133.59 80.1436 134.49 77.449C134.531 77.3193 134.565 77.1829 134.603 77.0533C134.749 77.005 134.884 76.9267 134.999 76.8233C135.113 76.7199 135.205 76.5938 135.268 76.4529C135.466 76.0129 135.469 75.4978 135.715 75.0885C136.002 74.6041 136.547 74.3449 136.977 73.9799C138.062 73.0589 138.342 71.5068 138.291 70.0946C138.257 68.9519 138.072 67.799 138.144 66.6631L138.165 66.3765C138.185 66.206 138.209 66.0354 138.24 65.8717C138.407 65.0258 138.772 64.2276 138.977 63.3884C139.181 62.5493 139.202 61.6044 138.724 60.8813C138.025 59.8204 136.568 59.6089 135.289 59.4998C133.839 59.377 132.542 59.5373 131.614 58.3332C131.18 57.7038 130.691 57.1137 130.154 56.5696C129.963 56.3923 128.107 55.2598 128.107 55.1847C126.296 54.3459 124.242 54.1885 122.324 54.7413C121.362 55.021 120.455 55.4781 119.479 55.7066C117.374 56.2047 114.952 55.6657 113.164 56.8698C112.168 57.552 111.571 58.6368 111.011 59.6942C110.556 60.5652 110.095 61.435 109.626 62.3037C108.872 63.7329 108.105 65.1861 107.787 66.7688C107.721 67.1132 107.68 67.4621 107.665 67.8126V67.8297C107.665 67.9559 107.665 68.0821 107.665 68.2083V68.3686C107.665 68.488 107.665 68.604 107.685 68.7097C107.705 68.8155 107.702 68.8496 107.712 68.9212C107.723 68.9929 107.74 69.1532 107.76 69.2623C107.781 69.3715 107.821 69.5625 107.862 69.7126C107.879 69.7774 107.903 69.8388 107.924 69.9002C107.958 70.0162 107.999 70.1287 108.043 70.2413C108.067 70.2993 108.091 70.3607 108.118 70.4187C108.169 70.5381 108.231 70.6541 108.292 70.7598C108.32 70.8076 108.34 70.8519 108.367 70.8962C108.462 71.0549 108.567 71.2075 108.681 71.3533C109.411 72.2641 110.486 72.844 111.281 73.6968C111.281 73.7309 111.281 73.765 111.281 73.7957C111.281 73.8912 111.281 73.9833 111.281 74.0788C111.323 75.9807 111.829 77.8434 112.756 79.505C113.682 81.1667 115 82.5768 116.596 83.6128C116.596 83.7424 116.613 83.8755 116.62 84.0051C116.687 85.0176 116.674 86.0338 116.583 87.0444C116.444 86.8808 116.27 86.7505 116.074 86.6631C115.878 86.5757 115.664 86.5335 115.45 86.5395C115.303 86.5324 115.156 86.545 115.013 86.577L114.982 86.5532V86.5839C114.232 86.7681 113.307 87.5492 112.424 89.7698C112.424 89.7698 109.735 92.7989 107.688 92.6727C105.641 92.5465 100.459 95.8245 100.459 95.8245C100.459 95.8245 95.4031 99.106 94.3182 102.449C93.7118 104.344 92.9847 106.199 92.1415 108.002L85.8914 120.879L84.7383 131.095C84.7383 131.095 85.3763 135.639 85.25 136.331C85.1238 137.024 87.8736 143.269 87.8736 143.269C87.8736 143.269 96.9588 159.23 100.671 160.049L100.937 159.861C101.096 159.944 101.264 160.007 101.438 160.049L102.202 159.51C102.248 160.11 102.229 160.714 102.144 161.311C101.633 162.887 102.336 173.171 103.229 175.187C104.123 177.203 103.806 203.636 103.806 203.636L103.68 205.969C103.68 205.969 103.68 206.044 103.71 206.173L103.68 206.726L103.772 206.774C103.867 207.514 103.836 208.265 103.68 208.994C103.359 210.018 103.229 212.91 103.229 212.91C103.229 212.91 100.674 229.243 101.885 232.524C103.096 235.806 104.127 239.401 104.127 239.401C104.127 239.401 105.406 243.494 104.188 244.193C102.97 244.893 99.5073 246.066 100.22 247.772C100.869 249.348 103.328 253.571 103.693 254.188L103.663 254.512L103.161 259.946C103.242 260.663 103.437 261.363 103.738 262.02C104.287 263.204 105.355 264.432 107.385 264.298C107.726 264.275 108.122 264.234 108.504 264.183C112.219 263.684 116.794 262.027 116.794 262.027C116.557 261.876 116.339 261.696 116.146 261.491C115.963 261.314 115.819 261.102 115.721 260.868C115.623 260.633 115.573 260.381 115.576 260.127C115.631 259.137 113.778 254.423 113.318 253.264C113.246 253.096 113.208 253.001 113.208 253.001C113.208 253.001 117.432 248.587 116.729 244.674C116.729 244.674 112.055 241.946 113.594 240.448C115.133 238.951 117.882 234.649 117.882 234.649C117.882 234.649 118.009 218.566 117.882 216.165C117.751 214.498 117.83 212.821 118.118 211.174C118.169 210.925 118.23 210.683 118.295 210.444C120.423 210.762 122.571 210.925 124.723 210.932C125.507 210.932 126.306 210.932 127.111 210.884C127.111 211.112 127.121 211.357 127.142 211.621C127.319 215.605 127.65 222.591 127.919 225.187C128.302 228.908 130.413 238.937 130.413 238.937C130.413 238.937 126.384 241.523 131.116 247.895C131.116 247.895 131.116 250.204 130.802 250.538C130.467 251.631 130.197 252.743 129.994 253.867C129.796 255.068 129.714 256.282 130.035 256.913C130.802 258.421 135.408 258.298 135.408 258.298L135.521 258.278C136.39 258.188 137.269 258.272 138.106 258.524C138.943 258.776 139.721 259.193 140.396 259.748C142.146 261.153 148.788 260.536 152.384 260.089C153.793 259.912 154.735 259.748 154.735 259.748C154.781 259.589 154.797 259.422 154.783 259.257C154.745 258.373 154.053 256.436 149.358 254.706C149.358 254.706 144.944 251.739 145.005 249.153H144.913H144.401C144.773 249.133 145.012 249.153 145.012 249.153C145.012 249.153 143.282 242.843 143.988 242.331C144.694 241.819 142.579 234.827 142.579 234.827C142.579 234.827 141.368 223.092 141.303 222.27C141.306 221.565 141.413 220.864 141.621 220.19L141.303 213.756C141.303 213.756 141.242 211.618 141.303 210.922C141.293 210.318 141.244 209.715 141.157 209.117C141.126 208.878 141.095 208.629 141.061 208.384C142.716 207.964 143.79 207.575 143.79 207.575L143.599 185.182C145.005 182.453 145.264 176.466 145.257 172.219C145.257 169.491 145.135 167.471 145.135 167.471L147.055 164.336C147.055 164.336 147.499 160.584 146.796 159.762C146.486 159.39 146.625 159.005 146.881 158.688C147.014 158.582 147.154 158.486 147.301 158.401C147.301 158.401 147.28 158.37 147.257 158.326C147.391 158.214 147.533 158.112 147.683 158.022C147.683 158.022 147.001 156.965 147.611 156.518C148.185 156.907 148.696 157.2 149.085 157.439C149.058 157.688 149.031 157.831 149.031 157.831L149.194 157.49C149.57 157.702 149.798 157.831 149.798 157.831C149.798 157.831 152.807 151.838 152.743 150.955C152.678 150.071 154.79 146.35 154.79 146.35C154.79 146.35 155.045 144.395 156.199 143.576C157.352 142.758 157.092 136.826 157.092 136.826C157.092 136.826 157.413 133.735 158.181 132.473C158.948 131.211 157.481 129.509 157.481 129.509ZM99.9064 126.879L99.9644 128.308C99.6233 127.759 99.3776 127.364 99.3776 127.364L99.9064 126.879Z" fill="url(#paint0_linear)"/>
<path d="M149.962 155.242L149.225 158.38C149.225 158.38 143.323 155.368 142.259 151.541C141.194 147.714 144.04 146.261 144.04 146.261L149.539 148.591L149.962 155.242Z" fill="white"/>
<path opacity="0.1" d="M149.962 155.242L149.225 158.38C149.225 158.38 143.323 155.368 142.259 151.541C141.194 147.714 144.04 146.261 144.04 146.261L149.539 148.591L149.962 155.242Z" fill="black"/>
<path d="M116.839 262.047C116.839 262.047 111.38 264.053 107.627 264.305C105.635 264.438 104.587 263.217 104.048 262.04C103.754 261.386 103.564 260.69 103.485 259.977L103.973 254.57L104.233 251.691L112.206 249.62L113.335 253.073L113.441 253.335C113.894 254.488 115.713 259.178 115.658 260.157C115.656 260.408 115.704 260.657 115.8 260.888C115.897 261.12 116.038 261.329 116.218 261.505C116.401 261.711 116.609 261.893 116.839 262.047Z" fill="white"/>
<path d="M154.124 259.298C154.138 259.462 154.122 259.627 154.077 259.786C154.077 259.786 142.402 261.733 140.014 259.786C139.34 259.217 138.556 258.795 137.71 258.547C136.863 258.299 135.975 258.23 135.101 258.346C135.101 258.346 130.584 258.469 129.83 256.982C129.516 256.357 129.598 255.146 129.792 253.953C129.991 252.834 130.255 251.728 130.584 250.64L130.765 250.497L131.839 249.634L144.422 249.262H144.517C144.456 251.834 148.788 254.785 148.788 254.785C153.391 256.49 154.07 258.418 154.124 259.298Z" fill="white"/>
<path opacity="0.1" d="M154.124 259.298C154.136 259.462 154.119 259.627 154.073 259.785C154.073 259.785 142.402 261.733 140.014 259.785C139.341 259.217 138.557 258.795 137.711 258.547C136.866 258.299 135.978 258.231 135.104 258.346C135.104 258.346 130.584 258.469 129.833 256.982C129.52 256.354 129.598 255.146 129.792 253.953C131.532 254.126 134.279 254.56 135.357 255.593C136.988 257.166 139.751 258.735 141.447 258.858C142.774 258.943 150.713 259.195 154.124 259.298Z" fill="black"/>
<path opacity="0.1" d="M116.838 262.047C116.838 262.047 111.38 264.053 107.627 264.305C105.635 264.438 104.587 263.217 104.052 262.037C105.44 262.504 107.368 262.995 108.381 262.545C109.582 262.013 113.84 261.669 116.228 261.522C116.41 261.721 116.615 261.897 116.838 262.047Z" fill="black"/>
<path d="M124.938 100.412C120.434 98.6625 114.641 92.8807 116.088 90.1791C116.409 89.4973 116.6 88.7615 116.651 88.0096C116.744 86.9889 116.758 85.9625 116.692 84.9396C116.59 83.2645 116.389 81.5969 116.088 79.9458C116.088 79.9458 130.147 80.263 129.329 82.3336C129.09 82.9407 129.052 83.9948 129.117 85.175C129.182 86.3552 129.352 87.689 129.53 88.8181C129.775 90.3667 130.021 91.5469 130.021 91.5469C130.021 91.5469 129.161 92.751 128.656 92.8159C128.152 92.8807 131.399 102.906 124.938 100.412Z" fill="#CF6F80"/>
<path opacity="0.1" d="M113.43 253.335L113.324 253.451C109.121 248.369 104.038 254.703 104.038 254.703L103.963 254.57L104.222 251.691L112.195 249.62L113.324 253.072L113.43 253.335Z" fill="black"/>
<path opacity="0.1" d="M144.521 249.621C144.521 249.621 141.45 249.556 139.812 251.002C138.175 252.448 130.26 251.316 130.601 251.002C130.702 250.847 130.763 250.668 130.778 250.484L131.853 249.621L144.435 249.249C144.483 249.477 144.521 249.621 144.521 249.621Z" fill="black"/>
<path d="M118.66 209.707C118.432 210.273 118.258 210.859 118.142 211.457C117.857 213.096 117.778 214.765 117.906 216.424C118.033 218.811 117.906 234.813 117.906 234.813C117.906 234.813 115.208 239.08 113.703 240.584C112.199 242.089 116.774 244.79 116.774 244.79C117.456 248.679 113.321 253.072 113.321 253.072C109.118 247.99 104.035 254.328 104.035 254.328C104.035 254.328 101.271 249.552 100.582 247.847C99.8929 246.141 103.281 244.961 104.471 244.268C105.662 243.576 104.413 239.493 104.413 239.493C104.413 239.493 103.407 235.915 102.213 232.65C101.019 229.386 103.53 213.135 103.53 213.135C103.53 213.135 103.659 210.25 103.97 209.243C104.126 208.517 104.158 207.77 104.062 207.033C104.041 206.784 104.018 206.576 104.001 206.436C103.983 206.296 103.97 206.231 103.97 206.231L104.018 206.149L105.723 202.97C105.723 202.97 119.479 207.705 118.66 209.707Z" fill="#0079E9"/>
<path d="M144.521 249.245C144.521 249.245 141.45 249.18 139.812 250.61C138.175 252.039 130.26 250.924 130.601 250.61C130.942 250.296 130.915 247.973 130.915 247.973C126.272 241.635 130.233 239.063 130.233 239.063C130.233 239.063 128.158 229.086 127.783 225.385C127.52 222.799 127.196 215.851 127.022 211.884C126.947 210.178 126.903 209.005 126.903 209.005L130.697 208.24L131.184 208.142L140.334 206.306C140.334 206.306 140.587 208.012 140.757 209.407C140.843 210.003 140.89 210.603 140.901 211.205C140.839 211.887 140.901 214.022 140.901 214.022L141.211 220.425C141.008 221.097 140.904 221.794 140.901 222.495C140.962 223.311 142.153 234.983 142.153 234.983C142.153 234.983 144.224 241.949 143.517 242.45C142.811 242.952 144.521 249.245 144.521 249.245Z" fill="#0079E9"/>
<path opacity="0.1" d="M129.328 82.3336C129.09 82.9407 129.052 83.9948 129.117 85.175C127.234 86.3088 125.069 86.8886 122.871 86.8475C120.673 86.8065 118.531 86.1464 116.692 84.943C116.59 83.2667 116.389 81.598 116.088 79.9458C116.088 79.9458 130.147 80.2562 129.328 82.3336Z" fill="black"/>
<path d="M134.763 74.795C134.766 76.0242 134.572 77.246 134.19 78.4142C133.335 81.0317 131.583 83.2629 129.242 84.7134C126.901 86.1638 124.122 86.7401 121.398 86.3405C118.673 85.9409 116.177 84.591 114.351 82.5295C112.526 80.4679 111.488 77.8275 111.421 75.0747C111.421 74.9792 111.421 74.8905 111.421 74.795C111.394 73.2456 111.677 71.7064 112.251 70.2672C112.826 68.8279 113.682 67.5176 114.768 66.4124C115.855 65.3073 117.151 64.4296 118.58 63.8305C120.009 63.2313 121.544 62.9227 123.094 62.9227C124.644 62.9227 126.178 63.2313 127.607 63.8305C129.037 64.4296 130.333 65.3073 131.419 66.4124C132.506 67.5176 133.361 68.8279 133.936 70.2672C134.511 71.7064 134.793 73.2456 134.767 74.795H134.763Z" fill="#CF6F80"/>
<path opacity="0.1" d="M124.938 100.412C120.434 98.6625 114.641 92.8807 116.088 90.1791C116.409 89.4974 116.6 88.7616 116.651 88.0096L122.816 93.0751L126.63 96.2031L129.53 88.8215C129.775 90.3701 130.021 91.5504 130.021 91.5504C130.021 91.5504 129.161 92.7545 128.656 92.8193C128.152 92.8841 131.399 102.906 124.938 100.412Z" fill="black"/>
<path d="M140.88 122.799L135.732 209.271L129.018 209.711L111.632 159.571L114.484 100.044L115.085 87.4673L122.816 93.8153L126.633 96.9433L129.618 89.3468L135.169 94.1837L140.88 122.799Z" fill="#0079E9"/>
<path opacity="0.1" d="M118.66 209.707C118.432 210.273 118.258 210.859 118.142 211.457C113.256 210.703 108.511 209.221 104.065 207.06L103.973 207.013L104.004 206.463L104.021 206.177L105.727 202.998C105.727 202.998 119.479 207.705 118.66 209.707Z" fill="black"/>
<path opacity="0.1" d="M130.775 211.471C129.526 211.683 128.266 211.827 127.002 211.901C126.927 210.195 126.882 209.022 126.882 209.022L130.676 208.257L130.775 211.471Z" fill="black"/>
<path opacity="0.1" d="M140.737 209.424C138.311 210.055 134.565 210.765 131.212 210.321L131.164 208.159L140.314 206.323C140.314 206.323 140.566 208.012 140.737 209.424Z" fill="black"/>
<path opacity="0.1" d="M131.15 210.717C117.163 213.105 104.352 206.259 104.352 206.259L104.475 203.939C104.475 203.939 104.792 177.643 103.912 175.627C103.032 173.611 102.346 163.388 102.844 161.819C103.342 160.25 101.025 136.72 101.025 136.72L100.65 127.169L86.9149 121.606L93.0559 108.807C93.8853 107.013 94.5987 105.167 95.1916 103.281C96.2594 99.9587 101.217 96.6943 101.217 96.6943C101.217 96.6943 106.3 93.4333 108.309 93.5561C110.319 93.6789 112.953 90.6703 112.953 90.6703C114.897 85.714 116.658 87.9585 116.658 87.9585C116.658 88.1939 116.658 87.9585 116.562 88.6919C115.88 94.1326 127.595 111.325 127.763 111.628L128.878 138.801L130.007 173.188L131.15 210.717Z" fill="black"/>
<path d="M130.775 210.717C116.787 213.105 103.973 206.259 103.973 206.259L104.099 203.939C104.099 203.939 104.417 177.643 103.533 175.627C102.649 173.611 101.967 163.388 102.469 161.819C102.97 160.25 100.65 136.72 100.65 136.72L100.272 127.169L86.5294 121.585L92.6704 108.787C93.498 106.991 94.2113 105.146 94.8061 103.261C95.8705 99.9382 100.831 96.6738 100.831 96.6738C100.831 96.6738 105.914 93.4128 107.92 93.5356C109.926 93.6584 112.564 90.6498 112.564 90.6498C114.512 85.6935 116.658 87.938 116.658 87.938C116.658 88.1734 116.453 88.2791 116.562 88.6714C118.063 93.9483 127.22 111.304 127.387 111.608L128.516 138.78L129.646 173.168L130.775 210.717Z" fill="white"/>
<path opacity="0.1" d="M127.005 112.382C125.501 111.754 117.531 102.657 117.531 102.657V100.586C117.241 99.9042 115.518 100.32 114.119 100.798L114.72 88.2212L115.402 88.7874C116.896 94.061 126.831 112.078 127.005 112.382Z" fill="black"/>
<path d="M127.384 111.628C125.876 111 117.906 101.903 117.906 101.903V99.8325C117.616 99.1503 115.893 99.5664 114.495 100.044L115.098 87.4673L115.781 88.0335C117.279 93.3071 127.217 111.328 127.384 111.628Z" fill="white"/>
<path opacity="0.1" d="M104.352 156.999C104.539 156.999 114.078 155.996 114.078 155.996C114.078 155.996 119.854 167.352 119.476 170.115C119.097 172.878 118.411 175.323 116.088 174.89C113.765 174.457 103.584 175.231 103.584 175.231L104.352 156.999Z" fill="black"/>
<path d="M103.973 156.245C104.161 156.245 113.7 155.242 113.7 155.242C113.7 155.242 119.472 166.601 119.097 169.361C118.722 172.12 118.029 174.57 115.709 174.136C113.389 173.703 103.206 174.478 103.206 174.478L103.973 156.245Z" fill="white"/>
<path d="M111.161 150.914C111.161 150.914 119.916 155.618 120.103 157.054C120.291 158.49 115.648 156.426 114.645 156.177C113.985 156.018 113.313 155.913 112.635 155.863L105.945 156.044L111.161 150.914Z" fill="#CF6F80"/>
<path opacity="0.1" d="M124.562 112.969C125.071 112.969 125.484 112.556 125.484 112.048C125.484 111.539 125.071 111.127 124.562 111.127C124.054 111.127 123.641 111.539 123.641 112.048C123.641 112.556 124.054 112.969 124.562 112.969Z" fill="black"/>
<path d="M124.562 112.593C125.071 112.593 125.484 112.181 125.484 111.672C125.484 111.164 125.071 110.751 124.562 110.751C124.054 110.751 123.641 111.164 123.641 111.672C123.641 112.181 124.054 112.593 124.562 112.593Z" fill="#3F3D56"/>
<path opacity="0.1" d="M126.258 152.837C126.767 152.837 127.179 152.425 127.179 151.916C127.179 151.408 126.767 150.995 126.258 150.995C125.749 150.995 125.337 151.408 125.337 151.916C125.337 152.425 125.749 152.837 126.258 152.837Z" fill="black"/>
<path d="M126.258 152.459C126.767 152.459 127.179 152.046 127.179 151.538C127.179 151.029 126.767 150.617 126.258 150.617C125.749 150.617 125.337 151.029 125.337 151.538C125.337 152.046 125.749 152.459 126.258 152.459Z" fill="#3F3D56"/>
<path opacity="0.1" d="M125.48 132.903C125.989 132.903 126.401 132.491 126.401 131.982C126.401 131.473 125.989 131.061 125.48 131.061C124.971 131.061 124.559 131.473 124.559 131.982C124.559 132.491 124.971 132.903 125.48 132.903Z" fill="black"/>
<path d="M125.48 132.528C125.989 132.528 126.401 132.115 126.401 131.607C126.401 131.098 125.989 130.686 125.48 130.686C124.971 130.686 124.559 131.098 124.559 131.607C124.559 132.115 124.971 132.528 125.48 132.528Z" fill="#3F3D56"/>
<path d="M146.714 155.672C146.714 155.672 147.342 156.614 146.714 157.054C146.086 157.494 146.776 158.558 146.776 158.558C146.776 158.558 145.21 159.475 145.899 160.301C146.588 161.126 146.151 164.855 146.151 164.855L144.268 167.972C144.268 167.972 144.381 169.982 144.387 172.697C144.387 176.933 144.138 182.889 142.76 185.604L142.951 207.882C142.951 207.882 136.356 210.29 130.836 209.557L130.018 173.809C130.018 173.809 131.212 153.537 131.652 149.648C131.909 147.629 132.014 145.594 131.966 143.559C131.966 143.559 131.778 137.474 131.147 134.649C131.147 134.649 130.465 122.414 130.396 119.027C130.366 117.406 130.451 112.679 130.546 108.183C130.652 103.267 130.772 98.6317 130.772 98.6317L129.526 88.7805C129.526 88.7805 130.772 88.6543 131.147 89.1557C131.315 89.3127 131.498 89.4532 131.693 89.5753C133.842 91.0284 141.436 95.497 141.436 95.497C141.436 95.497 145.64 97.1684 146.646 99.563C147.652 101.958 148.352 103.656 148.84 104.339C149.328 105.021 149.594 108.227 149.594 108.227C149.594 108.227 151.04 114.128 152.169 115.128C153.299 116.127 154.124 122.486 154.124 122.486L144.145 130.331C144.145 130.331 143.268 143.382 143.081 143.887C142.893 144.392 146.714 155.672 146.714 155.672Z" fill="white"/>
<path d="M147.093 155.672C147.093 155.672 147.717 156.614 147.093 157.054C146.469 157.494 147.151 158.558 147.151 158.558C147.151 158.558 145.595 159.486 146.277 160.311C146.96 161.137 146.53 164.865 146.53 164.865L144.647 167.983C144.647 167.983 144.759 169.992 144.77 172.707C144.77 176.944 144.52 182.899 143.142 185.615L143.33 207.893C143.33 207.893 136.725 210.301 131.212 209.567L130.396 173.819C130.396 173.819 131.59 153.547 132.03 149.658C132.288 147.64 132.392 145.604 132.341 143.569C132.341 143.569 132.153 137.484 131.526 134.66C131.526 134.66 130.843 122.424 130.772 119.037C130.741 117.417 130.83 112.689 130.922 108.193C131.027 103.278 131.147 98.642 131.147 98.642L129.502 88.6577C129.502 88.6577 131.147 88.6577 131.526 89.166C131.692 89.3248 131.875 89.4655 132.071 89.5855C134.221 91.0387 141.818 95.5072 141.818 95.5072C141.818 95.5072 146.018 97.1786 147.025 99.5732C148.031 101.968 148.73 103.667 149.222 104.349C149.713 105.031 149.972 108.237 149.972 108.237C149.972 108.237 151.419 114.139 152.548 115.138C153.677 116.137 154.493 122.482 154.493 122.482L144.514 130.328C144.514 130.328 143.637 143.378 143.446 143.883C143.255 144.388 147.093 155.672 147.093 155.672Z" fill="white"/>
<path opacity="0.1" d="M135.142 101.538L136.043 104.165L131.3 108.94C131.406 104.028 131.526 99.3891 131.526 99.3891L129.881 89.4048C129.881 89.4048 131.526 89.4048 131.904 89.913C132.07 90.0715 132.253 90.211 132.45 90.3292L136.483 101.961L135.142 101.538Z" fill="black"/>
<path d="M134.763 100.784L135.667 103.411L130.925 108.186C131.031 103.271 131.15 98.6352 131.15 98.6352L129.502 88.6509C129.502 88.6509 131.15 88.6509 131.526 89.1591C131.693 89.317 131.876 89.4576 132.071 89.5787L136.107 101.207L134.763 100.784Z" fill="white"/>
<path opacity="0.1" d="M134.763 74.795C134.766 76.0242 134.572 77.246 134.19 78.4142C134.126 78.4243 134.06 78.4213 133.996 78.4055C133.933 78.3897 133.874 78.3613 133.822 78.3221C133.733 75.2521 132.222 72.3697 130.362 69.9172C129.84 69.1767 129.207 68.5209 128.486 67.9728C127.756 67.4251 126.849 67.1685 125.941 67.2531C124.917 67.393 124.013 68.0888 122.979 68.1775C121.615 68.2901 120.393 67.3452 119.039 67.2974C118.488 67.3027 117.945 67.4253 117.446 67.657C116.946 67.8888 116.502 68.2244 116.142 68.6414C115.431 69.483 114.902 70.4635 114.59 71.5204C114.054 73.1231 113.762 74.7973 113.724 76.4869C113.707 77.442 113.614 78.6393 112.727 78.9873C112.794 78.2848 112.714 77.5762 112.493 76.9062C112.272 76.2363 111.913 75.6196 111.441 75.0952L111.421 75.0747C111.421 74.9792 111.421 74.8905 111.421 74.795C111.394 73.2456 111.677 71.7064 112.251 70.2672C112.826 68.828 113.682 67.5176 114.768 66.4125C115.855 65.3073 117.151 64.4296 118.58 63.8305C120.009 63.2313 121.544 62.9227 123.094 62.9227C124.644 62.9227 126.178 63.2313 127.607 63.8305C129.037 64.4296 130.333 65.3073 131.419 66.4125C132.506 67.5176 133.361 68.828 133.936 70.2672C134.511 71.7064 134.793 73.2456 134.767 74.795H134.763Z" fill="black"/>
<path d="M127.926 56.2626C126.153 55.4288 124.137 55.2711 122.256 55.8191C121.311 56.0988 120.421 56.5525 119.462 56.781C117.415 57.2757 115.027 56.7401 113.27 57.9374C112.294 58.6196 111.707 59.6975 111.161 60.7447L109.797 63.344C109.053 64.7664 108.303 66.2127 107.992 67.7784C107.682 69.3441 107.869 71.0974 108.862 72.3561C109.585 73.2737 110.653 73.8502 111.438 74.7132C111.908 75.2381 112.265 75.8544 112.485 76.5236C112.706 77.1927 112.786 77.9003 112.721 78.6018C113.611 78.2607 113.696 77.06 113.717 76.1049C113.755 74.4153 114.047 72.741 114.583 71.1383C114.895 70.0811 115.423 69.1005 116.136 68.2594C116.495 67.8427 116.94 67.5073 117.439 67.2756C117.939 67.0438 118.482 66.9211 119.032 66.9154C120.397 66.9632 121.622 67.9046 122.973 67.7921C123.996 67.7068 124.904 67.0075 125.934 66.8711C126.842 66.7851 127.75 67.0418 128.479 67.5908C129.2 68.138 129.832 68.7939 130.352 69.5351C132.215 71.9877 133.726 74.8633 133.815 77.9401C134.2 78.2232 134.756 77.8548 134.947 77.4182C135.139 76.9815 135.145 76.4699 135.388 76.0537C135.667 75.5728 136.203 75.3169 136.623 74.9553C137.687 74.0378 137.953 72.4925 137.912 71.0906C137.871 69.6886 137.598 68.2662 137.864 66.8881C138.025 66.0422 138.386 65.2508 138.584 64.4151C138.782 63.5794 138.806 62.6413 138.339 61.9216C137.656 60.8641 136.22 60.656 134.968 60.5571C133.545 60.4343 132.273 60.5912 131.365 59.3939C130.939 58.7692 130.46 58.1825 129.932 57.6406C129.752 57.4633 127.926 56.3376 127.926 56.2626Z" fill="#512E4E"/>
<path opacity="0.1" d="M90.8452 128.196L87.28 121.605L86.1508 131.774C86.1508 131.774 86.7785 136.29 86.6523 136.983C86.526 137.675 89.2246 143.883 89.2246 143.883C89.2246 143.883 98.1393 159.759 101.779 160.577L114.078 151.79L110.817 147.649C110.817 147.649 109.688 147.209 109.405 147.649C109.405 147.649 103.349 137.232 102.721 136.478C102.093 135.724 102.216 134.22 102.216 134.22C102.216 134.22 101.275 133.217 101.588 132.275C101.902 131.334 99.77 128.069 99.77 128.069L101.715 126.251L90.8452 128.196Z" fill="black"/>
<path d="M87.4676 120.855L86.526 121.605L85.3967 131.774C85.3967 131.774 86.0245 136.29 85.8982 136.983C85.772 137.675 88.474 143.883 88.474 143.883C88.474 143.883 97.3852 159.759 101.025 160.577L113.328 151.79L110.063 147.649C110.063 147.649 108.934 147.209 108.65 147.649C108.65 147.649 102.595 137.232 101.967 136.478C101.339 135.724 101.466 134.22 101.466 134.22C101.466 134.22 100.524 133.217 100.838 132.275C101.152 131.334 99.016 128.069 99.016 128.069L100.961 126.251L87.4676 120.855Z" fill="white"/>
<path opacity="0.1" d="M145.899 160.69C146.581 161.519 146.151 165.24 146.151 165.24L144.268 168.358C144.268 168.358 144.381 170.37 144.387 173.082L141.221 174.072C140.935 174.161 140.632 174.181 140.337 174.129C140.041 174.077 139.763 173.956 139.524 173.774C139.285 173.593 139.094 173.357 138.964 173.087C138.835 172.816 138.773 172.519 138.782 172.219L139.328 154.615L146.714 157.439C146.086 157.876 146.776 158.947 146.776 158.947C146.776 158.947 145.21 159.861 145.899 160.69Z" fill="black"/>
<path d="M146.278 160.311C146.96 161.14 146.53 164.865 146.53 164.865L144.647 167.983C144.647 167.983 144.759 169.992 144.77 172.707L141.546 173.713C141.265 173.801 140.968 173.819 140.679 173.769C140.39 173.718 140.118 173.598 139.884 173.421C139.651 173.243 139.463 173.013 139.336 172.748C139.21 172.483 139.149 172.192 139.157 171.899L139.707 154.24L147.096 157.064C146.465 157.501 147.154 158.568 147.154 158.568C147.154 158.568 145.595 159.486 146.278 160.311Z" fill="white"/>
<path d="M148.724 151.92C148.724 151.92 148.222 155.123 146.967 155.311C145.711 155.498 145.148 160.492 143.896 160.315C142.644 160.137 143.473 155.672 143.517 154.806C143.562 153.939 142.153 150.351 143.207 149.536C144.261 148.72 147.598 149.536 147.598 149.536L148.724 151.92Z" fill="#CF6F80"/>
<path opacity="0.1" d="M151.395 127.254L153.763 122.479C153.763 122.479 154.704 126.118 154.704 128.063C154.704 130.007 156.021 130.198 156.021 130.198C156.021 130.198 157.464 131.904 156.703 133.145C155.943 134.387 155.636 137.477 155.636 137.477C155.636 137.477 155.885 143.375 154.755 144.19C153.626 145.006 153.391 146.953 153.391 146.953C153.391 146.953 151.317 150.654 151.381 151.534C151.446 152.415 148.495 158.374 148.495 158.374C148.495 158.374 149.938 150.968 141.529 147.769C141.529 147.769 141.464 145.255 142.091 144.566C142.719 143.877 143.698 143.563 143.084 140.08C142.47 136.597 142.907 132.436 142.907 131.6C142.907 130.764 144.79 125.552 144.79 125.552L151.395 127.254Z" fill="black"/>
<path d="M152.418 121.797L154.486 122.479C154.486 122.479 155.431 126.118 155.431 128.063C155.431 130.007 156.748 130.198 156.748 130.198C156.748 130.198 158.191 131.904 157.43 133.145C156.669 134.387 156.366 137.477 156.366 137.477C156.366 137.477 156.615 143.375 155.485 144.19C154.356 145.006 154.104 146.953 154.104 146.953C154.104 146.953 152.033 150.654 152.098 151.534C152.163 152.414 149.208 158.374 149.208 158.374C149.208 158.374 150.655 150.968 142.242 147.769C142.242 147.769 142.18 145.255 142.808 144.566C143.436 143.877 144.415 143.563 143.801 140.08C143.187 136.597 143.623 132.436 143.623 131.6C143.623 130.764 145.506 125.552 145.506 125.552L152.418 121.797Z" fill="white"/>
<path opacity="0.1" d="M106.754 245.575C106.754 245.575 110.049 243.504 112.212 245.009C114.375 246.513 106.754 245.575 106.754 245.575Z" fill="black"/>
<path opacity="0.1" d="M132.361 239.172C132.361 239.172 135.278 238.797 137.728 241.434C140.178 244.07 132.361 239.172 132.361 239.172Z" fill="black"/>
<g opacity="0.1">
<path opacity="0.1" d="M136.629 74.2083C136.21 74.5699 135.671 74.8291 135.391 75.3101C135.152 75.7228 135.145 76.2311 134.954 76.6745C134.763 77.118 134.207 77.4796 133.822 77.1999C133.733 74.1299 132.218 71.2475 130.359 68.7915C129.839 68.0503 129.207 67.3944 128.486 66.8472C127.756 66.2983 126.847 66.0416 125.937 66.1274C124.914 66.2673 124.013 66.9632 122.979 67.0484C121.615 67.1644 120.39 66.2195 119.036 66.1718C118.485 66.1773 117.942 66.3003 117.443 66.5327C116.944 66.7651 116.501 67.1014 116.142 67.5192C115.43 68.359 114.902 69.3385 114.59 70.3947C114.054 71.9975 113.762 73.6717 113.724 75.3613C113.703 76.313 113.614 77.5 112.734 77.8548C112.755 78.1068 112.755 78.36 112.734 78.612C113.621 78.2709 113.71 77.0702 113.73 76.1151C113.768 74.4255 114.061 72.7512 114.597 71.1486C114.908 70.0913 115.437 69.1108 116.149 68.2696C116.508 67.853 116.952 67.5176 117.451 67.2859C117.95 67.0542 118.492 66.9313 119.042 66.9256C120.407 66.9734 121.635 67.9148 122.986 67.8023C124.01 67.717 124.917 67.0177 125.944 66.8813C126.854 66.7955 127.762 67.0521 128.493 67.601C129.214 68.1482 129.846 68.8042 130.366 69.5454C132.225 71.9979 133.74 74.8735 133.828 77.9503C134.214 78.2334 134.77 77.865 134.961 77.4284C135.152 76.9918 135.159 76.4801 135.398 76.064C135.678 75.583 136.217 75.3272 136.636 74.9656C137.701 74.048 137.967 72.5028 137.926 71.1008C137.926 71.0565 137.926 71.0121 137.926 70.9712C137.861 72.1855 137.537 73.4238 136.629 74.2083Z" fill="black"/>
<path opacity="0.1" d="M111.445 73.9662C110.66 73.1032 109.589 72.5267 108.869 71.6125C108.263 70.8033 107.917 69.8291 107.876 68.8188C107.769 70.0813 108.121 71.34 108.869 72.363C109.589 73.2806 110.66 73.857 111.445 74.72C112.198 75.5642 112.65 76.6342 112.731 77.7627C112.783 77.0759 112.696 76.3857 112.475 75.7333C112.254 75.0809 111.904 74.4799 111.445 73.9662Z" fill="black"/>
<path opacity="0.1" d="M138.591 63.6681C138.39 64.5038 138.032 65.2986 137.868 66.1411C137.771 66.7041 137.735 67.276 137.762 67.8466C137.773 67.5216 137.809 67.1978 137.868 66.8779C138.032 66.032 138.39 65.2406 138.591 64.4049C138.708 63.9439 138.746 63.4664 138.704 62.9927C138.682 63.2202 138.645 63.4459 138.591 63.6681Z" fill="black"/>
</g>
<path opacity="0.1" d="M45.2827 259.444C63.6423 259.444 78.5257 257.054 78.5257 254.106C78.5257 251.158 63.6423 248.768 45.2827 248.768C26.9231 248.768 12.0397 251.158 12.0397 254.106C12.0397 257.054 26.9231 259.444 45.2827 259.444Z" fill="#0079E9"/>
<path d="M46.3539 151.842H44.2148V199.996H46.3539V151.842Z" fill="#535461"/>
<path d="M59.7958 199.849L59.6628 202.019L59.4717 205.089L59.3933 206.364L59.2056 209.434L59.1237 210.71L58.9327 213.78L56.7765 248.597C56.6828 250.095 56.0217 251.501 54.9278 252.529C53.8338 253.557 52.3892 254.129 50.888 254.13H39.6774C38.1765 254.129 36.7324 253.557 35.639 252.529C34.5456 251.501 33.8852 250.095 33.7923 248.597L31.6464 213.756L31.4553 210.686L31.3769 209.41L31.1858 206.34L31.1074 205.065L30.9163 201.995L30.7798 199.825C30.7561 199.408 30.818 198.99 30.9617 198.597C31.1053 198.204 31.3277 197.845 31.6152 197.541C31.9028 197.237 32.2493 196.996 32.6337 196.83C33.018 196.665 33.432 196.581 33.8503 196.581H56.78C57.1967 196.585 57.6082 196.674 57.9892 196.843C58.3702 197.011 58.7126 197.256 58.9952 197.563C59.2778 197.869 59.4946 198.23 59.6323 198.623C59.77 199.016 59.8257 199.434 59.7958 199.849Z" fill="#3F3D56"/>
<path d="M59.6627 202.019L59.4717 205.078H31.0936L30.9026 202.019H59.6627Z" fill="#9D9CB5"/>
<path d="M59.3932 206.354L59.2056 209.417H31.3632L31.1721 206.354H59.3932Z" fill="#9D9CB5"/>
<path d="M59.1237 210.697L58.9361 213.756H31.6327L31.4417 210.697H59.1237Z" fill="#9D9CB5"/>
<path d="M27.6377 169.889C40.0936 178.902 45.2929 192.996 45.2929 192.996C45.2929 192.996 30.2817 192.481 17.8224 183.469C5.36306 174.457 0.17395 160.366 0.17395 160.366C0.17395 160.366 15.1783 160.877 27.6377 169.889Z" fill="#0079E9"/>
<path d="M0.163818 160.366C0.163818 160.366 15.7482 169.013 20.7462 176.173C25.7443 183.333 45.293 192.996 45.293 192.996" stroke="#535461" stroke-width="2" stroke-miterlimit="10"/>
<path d="M35.6789 151.736C42.4579 156.637 45.2929 164.309 45.2929 164.309C45.2929 164.309 37.1221 164.029 30.3397 159.128C23.5574 154.226 20.7291 146.551 20.7291 146.551C20.7291 146.551 28.8966 146.831 35.6789 151.736Z" fill="#0079E9"/>
<path d="M20.7291 146.551C20.7291 146.551 29.2105 151.258 31.9295 155.154C34.6486 159.049 45.2929 164.309 45.2929 164.309" stroke="#535461" stroke-width="2" stroke-miterlimit="10"/>
<path d="M55.1356 163.92C47.3468 172.479 45.699 183.663 45.699 183.663C45.699 183.663 56.681 180.969 64.463 172.407C72.245 163.845 73.8996 152.663 73.8996 152.663C73.8996 152.663 62.9244 155.362 55.1356 163.92Z" fill="#0079E9"/>
<path d="M73.9064 152.667C73.9064 152.667 63.7602 161.44 61.181 167.485C58.6018 173.529 45.699 183.663 45.699 183.663" stroke="#535461" stroke-width="2" stroke-miterlimit="10"/>
<path d="M341.052 160.908C341.052 160.908 335.419 132.889 337.575 129.403C337.575 129.403 337.654 126.163 337.524 122.032C337.524 121.875 337.524 121.718 337.524 121.558C337.903 121.811 338.299 122.038 338.708 122.24C340.694 123.26 342.975 123.555 345.156 123.072L343.45 121.172C343.041 120.719 342.614 120.227 342.525 119.627C342.437 119.027 342.682 118.491 342.894 117.956C344.514 113.862 344.6 108.715 341.478 105.59C338.841 102.964 338.199 99.5732 335.337 97.1752C333.246 95.4185 332.096 92.8431 331.011 90.353C330.093 88.2484 329.169 86.1267 328.643 83.8958C328.234 82.1528 328.07 80.3483 327.507 78.6462C326.944 76.944 325.89 75.2896 324.242 74.529C323.656 74.2595 323.004 74.106 322.468 73.7478C321.766 73.2737 321.343 72.5028 320.834 71.8274C318.252 68.4163 309.603 70.4254 305.509 71.8103C304.396 72.1591 303.365 72.73 302.48 73.4886L302.517 73.4272C302.548 73.376 302.585 73.3248 302.619 73.2737C302.171 73.636 301.784 74.0679 301.473 74.5528C300.876 75.4977 300.627 76.5995 300.129 77.6228C299.529 78.8338 296.189 82.2142 297.625 83.5752C297.725 83.6666 297.841 83.7404 297.966 83.7935C298.505 84.0179 299.099 84.0772 299.672 83.9641L299.61 84.1107C299.12 85.3115 298.868 86.5965 298.87 87.8936C298.87 93.4981 303.493 98.0416 309.201 98.0416C310.274 98.0427 311.34 97.8781 312.363 97.5539C312.387 97.6835 312.407 97.8131 312.431 97.9427C312.431 97.9939 312.448 98.045 312.455 98.0962L312.274 98.3486C312.265 98.3331 312.255 98.3182 312.244 98.3043L306.887 105.788C306.069 106.365 301.354 109.776 301.088 112.334C300.808 115.135 300.528 118.413 300.528 118.413L300.491 119.115C300.257 119.311 299.983 119.453 299.688 119.533C299.394 119.612 299.086 119.627 298.785 119.576C297.113 119.303 297.113 125.716 297.113 125.716C297.113 125.716 296.001 126.739 295.237 125.852C294.472 124.965 292.453 127.971 292.453 127.971L279.796 128.516L279.506 128.533L278.823 126.422C278.75 126.199 278.591 126.014 278.383 125.908C278.174 125.801 277.931 125.781 277.708 125.852C277.655 125.87 277.603 125.891 277.554 125.917L277.506 125.944L277.418 126.006L277.373 126.047C277.349 126.069 277.326 126.093 277.305 126.118L277.264 126.166L277.244 126.187C277.165 126.295 277.113 126.421 277.091 126.554C277.07 126.687 277.08 126.823 277.121 126.951L277.708 128.762C275.265 129.253 272.768 130.638 274.804 134.452L264.481 132.545L267.821 135.349L285.063 138.907C284.835 139.316 284.985 139.909 285.698 140.745C288.768 144.351 294.363 145.33 296.615 145.582C297.21 146.912 297.952 148.171 298.829 149.334L298.635 152.926C298.635 152.926 292.934 180.304 291.89 181.692C292.417 181.095 292.899 180.46 293.333 179.792C291.678 185.417 289.365 193.116 288.758 194.269C287.782 196.111 286.878 203.564 287.99 204.041C288.332 204.188 289.307 204.116 290.699 204.011V204.628L290.638 228.025C290.638 228.025 290.918 242.375 290.15 243.743C289.382 245.111 289.178 247.98 289.178 247.98C289.178 247.98 286.107 253.639 283.675 255.914C283.658 255.932 283.64 255.948 283.62 255.962L283.545 255.43C283.545 255.43 280.621 259.12 274.153 258.912C274.153 258.912 270.26 261.443 276.033 261.58C281.805 261.716 289.178 261.375 289.178 261.375C289.178 261.375 294.326 253.53 298.638 254.553V260.498H299.958V254.457C300.571 254.054 301.095 253.531 301.499 252.92C301.903 252.308 302.178 251.621 302.309 250.9C302.422 250.156 302.339 249.396 302.069 248.695C301.798 247.993 301.35 247.374 300.767 246.898C300.505 246.662 300.295 246.374 300.15 246.052C300.005 245.73 299.928 245.382 299.924 245.029L299.876 245.07C299.876 244.951 299.846 244.828 299.832 244.702C299.453 241.632 298.979 235.297 300.654 230.61C302.95 224.184 303.646 215.233 301.975 209.905C301.435 208.202 300.992 206.47 300.648 204.717C300.607 204.495 300.569 204.284 300.535 204.086C301.678 204.24 302.809 204.468 303.923 204.768C307.795 205.836 316.266 206.033 323.499 205.975C323.516 206.173 323.536 206.381 323.56 206.59C323.689 208.036 323.959 209.466 324.365 210.86C325.273 213.589 325.689 225.62 325.689 225.62C325.689 225.62 326.859 235.512 326.221 239.537C325.88 241.775 325.539 244.023 325.344 246.281V246.325C325.344 246.325 323.427 251.783 322.025 254.747C321.991 254.822 321.953 254.897 321.919 254.969C321.545 255.003 321.177 255.085 320.824 255.211C320.824 255.211 318.944 258.963 317.071 259.584C315.198 260.205 315.819 262.248 320.06 261.498C324.3 260.747 330.704 260.133 330.704 260.133L330.98 256.306L332.284 254.676L331.943 258.493L333.331 258.22L333.147 253.577L335.279 250.91C335.279 250.91 337.855 248.618 334.027 244.108V244.207C333.986 244.142 333.949 244.074 333.904 244.009V243.989C333.27 243.006 332.765 241.175 333.689 237.924C335.361 232.05 336.333 226.718 336.333 226.718C336.333 226.718 340.066 212.436 335.579 205.679H335.777C335.317 204.728 334.992 203.718 334.812 202.677C334.789 202.554 334.768 202.428 334.75 202.298C338.07 202.107 341.328 201.507 343.986 200.211C343.975 200.197 342.375 166.304 341.052 160.908ZM298.908 137.269V137.337L298.225 137.372L298.908 137.269ZM296.567 137.593C296.455 137.618 296.35 137.668 296.26 137.74C295.967 138.155 295.783 138.637 295.725 139.142L294.66 138.903C294.66 138.903 293.913 138.743 292.838 138.562L292.33 138.05C293.729 137.934 295.182 137.764 296.567 137.593Z" fill="url(#paint1_linear)"/>
<path d="M331.786 253.625L331.38 258.459L332.741 258.186L332.536 252.943L331.786 253.625Z" fill="#1D2366"/>
<path d="M300.729 230.675C299.088 235.349 299.552 241.656 299.921 244.719C300.057 245.851 300.183 246.54 300.183 246.54C300.183 246.54 297.73 252.128 297.526 252.339C297.321 252.551 290.307 256.832 290.307 256.832L285.404 259.694C285.404 259.694 280.43 257.514 282.815 256.763C283.302 256.568 283.741 256.269 284.101 255.887C286.489 253.618 289.488 247.98 289.488 247.98C289.488 247.98 289.693 245.118 290.443 243.757C291.194 242.396 290.921 228.093 290.921 228.093L290.979 204.778V201.739L300.31 201.807C300.369 202.839 300.503 203.865 300.712 204.877C301.047 206.624 301.481 208.351 302.012 210.048C303.657 215.366 302.974 224.273 300.729 230.675Z" fill="#FFB0B1"/>
<path opacity="0.1" d="M300.183 246.54C300.183 246.54 297.731 252.128 297.526 252.339C297.321 252.551 290.307 256.832 290.307 256.832L285.404 259.693C285.404 259.693 280.43 257.514 282.815 256.763C283.302 256.568 283.741 256.269 284.101 255.887L284.313 257.377L285.947 257.309L299.934 244.726C300.057 245.851 300.183 246.54 300.183 246.54Z" fill="black"/>
<path d="M300.013 245.043L285.947 257.712L284.312 257.78L283.971 255.392C283.971 255.392 281.112 259.069 274.76 258.865C274.76 258.865 270.946 261.385 276.599 261.522C282.252 261.658 289.471 261.317 289.471 261.317C289.471 261.317 294.513 253.472 298.734 254.495V260.42H300.03V254.44C300.633 254.035 301.147 253.511 301.542 252.902C301.937 252.292 302.205 251.609 302.329 250.893C302.442 250.155 302.362 249.402 302.099 248.704C301.835 248.006 301.397 247.388 300.825 246.909C300.57 246.669 300.366 246.38 300.226 246.059C300.087 245.739 300.014 245.393 300.013 245.043Z" fill="#1D2366"/>
<path d="M333.082 237.961C332.174 241.202 332.669 243.027 333.29 244.006V244.026C334.086 245.235 334.64 246.587 334.921 248.007L334.975 248.314L328.575 257.643L325.102 259.008C325.102 259.008 319.517 257.101 320.537 256.555C320.793 256.422 321.192 255.713 321.649 254.734C323.014 251.783 324.897 246.339 324.897 246.339V246.295C325.095 244.047 325.409 241.806 325.757 239.575C326.381 235.56 325.235 225.705 325.235 225.705C325.235 225.705 324.826 213.722 323.939 210.997C323.538 209.611 323.272 208.19 323.144 206.753C322.96 205.048 322.919 203.642 322.919 203.642C322.919 203.642 326.596 198.526 333.338 204.052C333.877 204.492 334.351 205.007 334.747 205.58C339.404 212.204 335.654 226.797 335.654 226.797C335.654 226.797 334.716 232.104 333.082 237.961Z" fill="#FFB0B1"/>
<path opacity="0.1" d="M334.986 248.314L328.585 257.643L325.112 259.008C325.112 259.008 319.527 257.101 320.548 256.555C320.803 256.422 321.203 255.713 321.66 254.734C324.024 254.713 325.249 256.965 325.249 256.965L328.244 256.487C328.244 256.487 332.195 248.723 333.082 248.249C333.969 247.775 333.218 244.705 333.218 244.705V243.924C333.242 243.951 333.263 243.982 333.29 244.009V244.03C334.086 245.238 334.64 246.59 334.921 248.01L334.986 248.314Z" fill="black"/>
<path d="M325.454 257.166C325.454 257.166 323.748 254.034 320.479 255.191C320.479 255.191 318.64 258.943 316.802 259.55C314.963 260.157 315.577 262.204 319.732 261.457C323.888 260.71 330.151 260.093 330.151 260.093L330.424 256.276L334.648 250.896C334.648 250.896 337.166 248.614 333.42 244.122V244.903C333.42 244.903 334.17 247.973 333.283 248.447C332.396 248.921 328.459 256.688 328.459 256.688L325.454 257.166Z" fill="#1D2366"/>
<path opacity="0.1" d="M300.32 201.8C300.379 202.832 300.513 203.858 300.723 204.87C296.881 204.308 293.316 204.587 290.979 204.771V201.732L300.32 201.8Z" fill="black"/>
<path opacity="0.1" d="M335.126 206.429C335.126 206.429 329.667 206.695 323.158 206.75C322.973 205.044 322.932 203.639 322.932 203.639C322.932 203.639 326.61 198.522 333.352 204.048C333.891 204.489 334.365 205.003 334.761 205.576C334.866 205.867 334.988 206.152 335.126 206.429Z" fill="black"/>
<path d="M335.126 205.815C335.126 205.815 311.217 206.972 303.929 204.928C296.642 202.885 289.42 204.655 288.331 204.181C287.243 203.707 288.127 196.281 289.082 194.443C290.037 192.604 295.278 174.01 295.278 174.01L300.32 147.724L305.632 146.261L306.007 146.155L315.263 143.604L322.045 141.731C322.045 141.731 335.531 194.374 334.375 198.256C333.955 199.743 333.887 201.306 334.177 202.824C334.354 203.86 334.673 204.866 335.126 205.815Z" fill="#1D2366"/>
<path d="M282.743 129.748C282.743 129.748 277.967 134.864 281.583 137.716C285.2 140.568 287.578 137.989 287.578 137.989L282.743 129.748Z" fill="#C7DAF5"/>
<path opacity="0.1" d="M282.743 129.748C282.743 129.748 277.967 134.864 281.583 137.716C285.2 140.568 287.578 137.989 287.578 137.989L282.743 129.748Z" fill="black"/>
<path d="M321.332 96.1076C321.332 96.1076 320.773 96.6397 319.93 97.4242C318.729 98.5465 316.952 100.187 315.376 101.562C313.192 103.462 311.391 104.857 312.036 103.667C312.68 102.476 312.558 100.402 312.237 98.4612C312.213 98.3316 312.192 98.202 312.169 98.0758C311.903 96.6503 311.551 95.2424 311.114 93.8597C311.114 93.8597 314.642 89.3024 316.593 87.5048C317.32 86.8226 317.829 86.5429 317.859 87.017C317.893 87.6549 318.371 89.0637 318.965 90.5577C318.982 90.6055 318.999 90.6498 319.019 90.6976C319.415 91.7209 319.862 92.7715 320.254 93.6789C320.855 95.0706 321.332 96.1076 321.332 96.1076Z" fill="#FFB0B1"/>
<path opacity="0.1" d="M319.019 90.6976C318.688 92.4804 317.883 94.1414 316.69 95.5071C315.497 96.8728 313.959 97.8931 312.237 98.4613C311.966 96.9041 311.591 95.3668 311.114 93.8597C311.114 93.8597 317.757 85.2808 317.859 87.017C317.883 87.6754 318.402 89.1353 319.019 90.6976Z" fill="black"/>
<path opacity="0.1" d="M311.575 100.754L312.435 99.5426C312.435 99.5426 313.004 103.015 315.099 101.484C317.194 99.9519 317.296 113.01 317.296 113.01L315.048 146.619L298.802 145.647L299.262 129.407L301.101 121.22L305.649 109.319L308.354 105.386L311.575 100.754Z" fill="black"/>
<path d="M317.296 113.218L315.249 143.607L315.034 146.827L305.976 146.285L305.635 146.264L298.812 145.855L299.273 129.611L301.111 121.425L305.659 109.523L308.365 105.59L311.585 100.941L312.445 99.7335C312.445 99.7335 313.015 103.206 315.109 101.674L315.154 101.644C317.201 100.348 317.296 113.218 317.296 113.218Z" fill="#1D2366"/>
<path d="M301.34 118.58C301.34 118.58 300.525 120.285 298.887 120.009C297.249 119.733 297.253 126.149 297.253 126.149C297.253 126.149 296.165 127.172 295.414 126.285C294.663 125.399 292.685 128.397 292.685 128.397L280.287 128.943C280.287 128.943 285.803 131.464 284.722 139.091C284.722 139.091 303.452 137.931 304.066 136.161C304.68 134.39 301.34 118.58 301.34 118.58Z" fill="white"/>
<path opacity="0.03" d="M301.34 118.58C301.34 118.58 300.525 120.285 298.887 120.009C297.249 119.733 297.253 126.149 297.253 126.149C297.253 126.149 296.165 127.172 295.414 126.285C294.663 125.399 292.685 128.397 292.685 128.397L280.287 128.943C280.287 128.943 285.803 131.464 284.722 139.091C284.722 139.091 303.452 137.931 304.066 136.161C304.68 134.39 301.34 118.58 301.34 118.58Z" fill="black"/>
<path d="M265.31 132.951L268.578 135.741L295.482 141.393L292.146 137.989L265.31 132.951Z" fill="white"/>
<path d="M311.626 101.828C311.179 102.51 309.9 106.003 308.832 109.053C307.942 111.594 307.198 113.828 307.198 113.828C307.198 113.828 305.461 125.133 304.574 127.176C303.687 129.219 304.168 137.187 304.168 137.187L300.862 156.866C300.862 156.866 299.365 167.014 297.052 173.076C294.769 179.042 292.228 181.839 292.149 181.927C293.173 180.542 298.751 153.274 298.751 153.274L300.593 118.884C300.593 118.884 300.862 115.616 301.135 112.822C301.408 110.028 306.935 106.215 306.935 106.215L312.264 98.6387C312.8 99.355 312.441 100.603 311.626 101.828Z" fill="white"/>
<path d="M297.731 146.026C297.731 146.026 289.884 145.684 286.083 141.12C282.283 136.556 294.868 139.299 294.868 139.299L298.14 140.049L297.731 146.026Z" fill="#FFB0B1"/>
<path opacity="0.1" d="M334.375 198.26C333.955 199.746 333.887 201.31 334.177 202.827C325.617 203.434 316.46 201.121 316.46 201.121C314.755 202.691 310.261 205.003 310.261 205.003L307.812 174.645C306.246 170.551 305.632 149.106 305.632 149.106C305.632 149.106 305.772 147.983 305.973 146.302C305.973 146.261 305.973 146.216 305.99 146.176C306.601 141.478 307.812 132.661 308.405 131.47C309.224 129.833 305.888 125.477 305.888 125.477L307.406 112.532L307.59 110.97C310.79 109.54 313.243 104.976 313.243 104.976L315.126 101.678C317.173 100.365 317.279 113.235 317.279 113.235L315.232 143.624L322.014 141.751C322.014 141.751 335.531 194.378 334.375 198.26Z" fill="black"/>
<path d="M343.16 200.357C333.829 204.99 316.87 200.699 316.87 200.699C315.164 202.268 310.671 204.58 310.671 204.58L308.218 174.222C306.655 170.128 306.041 148.683 306.041 148.683C306.041 148.683 308.013 132.681 308.832 131.047C309.071 130.57 308.955 129.86 308.672 129.096C307.279 125.459 306.767 121.545 307.177 117.673L307.832 112.109L308.013 110.55C311.217 109.117 313.67 104.553 313.67 104.553L315.376 101.565L318.514 96.0598L320.002 93.4537L320.254 93.6823L322.182 95.4288C322.182 95.4288 323.001 96.111 324.229 97.1343C326.9 99.3856 331.516 103.349 333.897 105.775C335.992 107.91 336.654 116.216 336.845 122.468C336.971 126.586 336.896 129.813 336.896 129.813C334.784 133.288 340.308 161.195 340.308 161.195C341.594 166.588 343.16 200.357 343.16 200.357Z" fill="white"/>
<path opacity="0.03" d="M325.249 104.485C325.249 104.485 318.845 116.673 319.589 121.305C320.333 125.938 322.448 131.18 321.428 132.405C321.077 132.869 320.624 133.246 320.104 133.505C319.584 133.765 319.01 133.901 318.429 133.902C317.405 133.971 314.676 135.877 314.676 136.082C314.676 136.287 312.155 136.287 309.9 137.242C307.645 138.197 304.315 138.739 304.315 138.739C304.315 138.739 297.833 138.535 297.229 139.149C296.625 139.763 296.004 143.436 297.297 146.367C298.59 149.297 300.027 151.483 301.111 151.882C302.196 152.281 309.081 149.976 314.666 149.43C320.251 148.884 326.313 144.46 326.313 144.46C326.313 144.46 332.99 142.072 334.16 138.057C335.33 134.042 332.731 111.976 332.731 111.976C332.731 111.976 330.765 101.691 325.249 104.485Z" fill="black"/>
<path opacity="0.03" d="M324.43 103.462C324.43 103.462 318.026 115.653 318.777 120.282C319.528 124.911 321.636 130.157 320.612 131.385C320.263 131.85 319.811 132.227 319.291 132.486C318.771 132.746 318.198 132.882 317.617 132.883C316.594 132.951 313.864 134.858 313.864 135.062C313.864 135.267 311.343 135.267 309.088 136.219C306.833 137.17 303.503 137.716 303.503 137.716C303.503 137.716 297.021 137.511 296.421 138.125C295.82 138.739 295.192 142.417 296.489 145.343C297.785 148.27 299.218 150.46 300.303 150.859C301.388 151.258 308.273 148.952 313.857 148.41C319.442 147.868 325.505 143.436 325.505 143.436C325.505 143.436 332.178 141.049 333.334 137.037C334.491 133.026 331.905 110.953 331.905 110.953C331.905 110.953 329.947 100.672 324.43 103.462Z" fill="black"/>
<path d="M325.048 103.871C325.048 103.871 318.644 116.063 319.394 120.691C320.145 125.32 322.253 130.567 321.233 131.791C320.884 132.257 320.431 132.635 319.911 132.895C319.39 133.156 318.817 133.291 318.234 133.292C317.211 133.36 314.482 135.267 314.482 135.468C314.482 135.67 311.964 135.673 309.705 136.628C307.447 137.583 304.12 138.125 304.12 138.125C304.12 138.125 297.638 137.921 297.035 138.535C296.431 139.149 295.81 142.826 297.103 145.753C298.396 148.679 299.832 150.869 300.917 151.268C302.002 151.668 308.887 149.362 314.471 148.816C320.056 148.27 326.119 143.846 326.119 143.846C326.119 143.846 332.795 141.458 333.966 137.443C335.136 133.428 332.553 111.362 332.553 111.362C332.553 111.362 330.561 101.095 325.048 103.871Z" fill="white"/>
<path opacity="0.1" d="M324.908 136.57C324.908 136.57 319.79 135.547 321.571 137.252C323.352 138.958 323.342 140.452 325.522 140.384C327.702 140.315 324.908 136.57 324.908 136.57Z" fill="black"/>
<path opacity="0.1" d="M333.556 173.267C333.556 173.267 331.243 174.832 335.668 178.441C340.093 182.05 333.556 173.267 333.556 173.267Z" fill="black"/>
<path opacity="0.1" d="M329.141 186.137C329.141 186.341 328.323 193.641 331.386 195.466C334.45 197.291 329.141 186.137 329.141 186.137Z" fill="black"/>
<path d="M280.498 128.926C278.028 129.011 272.692 129.765 275.459 134.926C277.905 139.493 282.016 136.44 284.33 134.124C283.765 131.965 282.394 130.104 280.498 128.926Z" fill="#FFB0B1"/>
<path d="M284.36 134.083L284.463 133.978L284.36 134.083Z" fill="#FFB0B1"/>
<path opacity="0.1" d="M324.229 97.3424C321.609 99.1332 319.412 100.644 318.982 100.958C317.808 101.828 315.57 106.934 314.127 109.54C312.977 111.638 309.241 112.177 307.832 112.31L308.013 110.751C311.217 109.319 313.67 104.755 313.67 104.755L320.002 93.655L322.182 95.6369C322.182 95.6369 323.001 96.3191 324.229 97.3424Z" fill="black"/>
<path d="M324.229 97.1377C321.609 98.9285 319.412 100.44 318.982 100.757C317.808 101.623 315.57 106.73 314.127 109.336C312.977 111.434 309.241 111.973 307.832 112.106L308.013 110.547C311.217 109.114 313.67 104.55 313.67 104.55L320.002 93.4503L322.182 95.4253C322.182 95.4253 323.001 96.1007 324.229 97.1377Z" fill="#DCE7FF"/>
<path d="M319.186 88.4463C319.188 90.4939 318.567 92.4936 317.405 94.1803C316.034 96.1746 313.993 97.6112 311.653 98.2295C309.313 98.8479 306.828 98.607 304.65 97.5505C302.473 96.4941 300.746 94.6921 299.783 92.4715C298.82 90.251 298.686 87.7589 299.404 85.4476C300.122 83.1363 301.644 81.1589 303.696 79.8741C305.747 78.5893 308.191 78.0822 310.584 78.445C312.977 78.8078 315.161 80.0163 316.74 81.8512C318.318 83.6862 319.186 86.0261 319.186 88.4463Z" fill="#FFB0B1"/>
<path opacity="0.1" d="M336.845 122.472C335.46 121.62 334.331 120.408 333.58 118.965C333.01 117.84 332.632 116.54 331.659 115.742C330.783 115.026 329.612 114.852 328.521 114.531C324.932 113.47 321.922 110.195 321.81 106.457C321.755 104.697 322.305 102.94 322.056 101.197C321.914 100.21 321.522 99.2768 320.916 98.4851C320.615 98.1065 320.286 97.7519 319.93 97.4243C319.452 96.974 318.951 96.5374 318.514 96.0599C318.239 95.7642 317.999 95.438 317.798 95.0877C317.636 94.801 317.504 94.498 317.405 94.1838C316.723 92.0962 317.344 89.6197 316.593 87.5082L316.553 87.3923C316.269 86.6418 315.693 85.8914 314.891 85.8334C314.089 85.7754 313.404 86.4406 312.639 86.7373C311.039 87.3582 309.313 86.3007 307.979 85.2228C306.645 84.1449 305.141 82.9135 303.445 83.1523C302.323 83.3126 301.436 84.0767 300.402 84.4724C300.168 84.5627 299.928 84.6323 299.682 84.6804C300.557 82.4991 302.164 80.6904 304.228 79.5652C306.291 78.44 308.683 78.0685 310.99 78.5145C313.298 78.9605 315.379 80.1962 316.874 82.0092C318.37 83.8223 319.188 86.0995 319.186 88.4497C319.187 89.1594 319.113 89.8672 318.965 90.5612C318.982 90.6089 318.999 90.6533 319.019 90.701C319.415 91.7244 319.862 92.775 320.254 93.6823L322.182 95.4288C322.182 95.4288 323.001 96.111 324.229 97.1344C326.9 99.3857 331.516 103.349 333.897 105.775C335.992 107.917 336.647 116.219 336.845 122.472Z" fill="black"/>
<path d="M300.282 78.2403C300.77 77.2476 301.013 76.1356 301.596 75.1942C302.452 73.8297 303.947 72.9565 305.482 72.4278C309.491 71.0463 317.962 69.0405 320.493 72.4278C320.991 73.11 321.404 73.8672 322.093 74.338C322.618 74.6961 323.253 74.8496 323.83 75.1191C325.443 75.8764 326.474 77.5273 327.023 79.2124C327.572 80.8975 327.736 82.7054 328.139 84.4416C328.654 86.6691 329.558 88.7805 330.458 90.8784C331.519 93.3548 332.645 95.9234 334.692 97.6733C337.486 100.061 338.104 103.441 340.697 106.061C343.767 109.172 343.668 114.306 342.085 118.382C341.877 118.918 341.642 119.477 341.724 120.047C341.806 120.616 342.229 121.135 342.628 121.588L344.306 123.482C340.335 124.44 335.842 122.366 333.993 118.727C333.423 117.601 333.044 116.305 332.069 115.503C331.195 114.787 330.022 114.616 328.933 114.296C325.344 113.231 322.335 109.953 322.223 106.215C322.168 104.458 322.717 102.701 322.468 100.962C322.33 99.9684 321.936 99.0282 321.325 98.2327C320.387 97.0081 318.971 96.186 318.207 94.8216C316.914 92.5396 317.897 89.5753 316.965 87.1262C316.679 86.3757 316.106 85.6253 315.304 85.5673C314.502 85.5093 313.816 86.1745 313.049 86.4712C311.452 87.092 309.726 86.038 308.392 84.9567C307.058 83.8754 305.553 82.6474 303.854 82.8896C302.732 83.0465 301.848 83.8106 300.815 84.2097C300.05 84.503 298.502 84.7657 297.833 84.121C296.421 82.8214 299.692 79.4546 300.282 78.2403Z" fill="#591D4B"/>
<path opacity="0.1" d="M334.941 117.601C334.368 116.475 333.993 115.179 333.017 114.381C332.144 113.664 330.97 113.49 329.878 113.17C326.293 112.109 323.284 108.831 323.168 105.092C323.113 103.336 323.662 101.576 323.417 99.8359C323.274 98.8491 322.88 97.9155 322.274 97.1241C321.332 95.8995 319.916 95.0774 319.156 93.713C317.863 91.4344 318.845 88.4701 317.91 86.0175C317.627 85.2705 317.051 84.5201 316.252 84.4587C315.454 84.3973 314.761 85.0693 313.997 85.366C312.401 85.9868 310.671 84.9294 309.34 83.8515C308.01 82.7736 306.498 81.5422 304.803 81.781C303.68 81.9413 302.793 82.7054 301.763 83.1011C300.999 83.3944 299.447 83.6605 298.778 83.0158C297.372 81.6513 300.644 78.2914 301.231 77.0839C301.719 76.0878 301.961 74.9792 302.548 74.0378C302.578 73.9866 302.613 73.9354 302.647 73.8843C302.208 74.2478 301.829 74.6784 301.524 75.16C300.941 76.1015 300.699 77.2067 300.211 78.2061C299.621 79.4137 296.349 82.7838 297.758 84.138C298.44 84.7861 299.975 84.5201 300.74 84.2267C301.763 83.8276 302.657 83.0635 303.779 82.9066C305.485 82.6644 306.986 83.8958 308.317 84.9737C309.647 86.0516 311.387 87.1091 312.977 86.4883C313.741 86.1915 314.41 85.5229 315.229 85.5843C316.048 85.6457 316.594 86.3928 316.89 87.1432C317.822 89.5924 316.839 92.5566 318.132 94.8386C318.896 96.1792 320.312 97.0183 321.25 98.2497C321.861 99.0453 322.255 99.9855 322.393 100.979C322.642 102.718 322.093 104.475 322.148 106.232C322.26 109.984 325.269 113.248 328.858 114.313C329.94 114.633 331.12 114.804 331.994 115.52C332.973 116.322 333.358 117.618 333.918 118.744C335.767 122.383 340.26 124.457 344.231 123.499L343.44 122.605C339.997 122.656 336.514 120.698 334.941 117.601Z" fill="black"/>
<path opacity="0.1" d="M311.421 102.033C310.974 102.715 309.695 106.208 308.627 109.257C307.628 108.869 306.72 106.389 306.72 106.389L312.049 98.8092C312.595 99.5596 312.237 100.805 311.421 102.033Z" fill="black"/>
<path d="M311.626 101.828C311.179 102.51 309.9 106.003 308.832 109.053C307.832 108.667 306.925 106.184 306.925 106.184L312.254 98.6079C312.8 99.3549 312.441 100.603 311.626 101.828Z" fill="#DCE7FF"/>
<path d="M280.642 136.676L277.687 127.36C277.652 127.251 277.639 127.136 277.649 127.022C277.658 126.908 277.69 126.797 277.743 126.695C277.795 126.593 277.868 126.503 277.955 126.429C278.043 126.355 278.144 126.3 278.253 126.265C278.473 126.196 278.711 126.217 278.916 126.323C279.12 126.429 279.275 126.612 279.345 126.831L282.3 136.137L282.006 138.084L280.642 136.676Z" fill="#BE8B87"/>
<path opacity="0.1" d="M277.967 126.541C278.187 126.472 278.426 126.492 278.631 126.598C278.837 126.704 278.991 126.888 279.062 127.108L282.016 136.413L281.795 137.873L282.01 138.098L282.303 136.15L279.331 126.845C279.261 126.626 279.107 126.443 278.902 126.337C278.698 126.231 278.46 126.21 278.24 126.279C278.055 126.339 277.895 126.459 277.786 126.62C277.844 126.589 277.904 126.562 277.967 126.541Z" fill="white"/>
<path d="M280.642 136.676L282.3 136.15L282.057 137.747L282.006 138.098L281.522 137.593L280.642 136.676Z" fill="#EFC8C4"/>
<path d="M281.522 137.593C281.551 137.557 281.587 137.527 281.628 137.505C281.652 137.489 281.679 137.481 281.708 137.481C281.736 137.481 281.764 137.489 281.788 137.505C281.811 137.533 281.831 137.564 281.846 137.597C281.869 137.634 281.899 137.666 281.936 137.691C281.972 137.715 282.014 137.731 282.057 137.737L282.006 138.078L281.522 137.593Z" fill="#727A9C"/>
<path d="M277.67 130.669C277.67 130.669 283.596 130.635 282.201 133.156C280.805 135.676 278.625 135.98 278.625 135.98L277.67 130.669Z" fill="#FFB0B1"/>
<path d="M240.814 17.5399H240.558C230.378 17.5399 221.375 22.926 216.196 30.8739C211.017 22.926 202.014 17.5399 191.833 17.5399H191.577C183.937 17.6127 176.635 20.6972 171.256 26.1232C165.878 31.5491 162.859 38.878 162.855 46.5172C162.855 56.0034 167.01 69.4636 175.113 80.5394C190.55 101.644 216.196 120.108 216.196 120.108C216.196 120.108 241.841 101.647 257.275 80.5394C265.381 69.4636 269.533 56.0034 269.533 46.5172C269.529 38.8786 266.51 31.5502 261.133 26.1244C255.755 20.6985 248.454 17.6136 240.814 17.5399ZM237.153 82.1631C235.994 82.1587 234.863 81.8039 233.909 81.1452C232.955 80.4865 232.222 79.5548 231.807 78.4723H225.721C225.32 78.4698 224.93 78.3422 224.605 78.1074C224.281 77.8726 224.037 77.5422 223.909 77.1624L222.04 71.5307L216.124 92.1985C216.009 92.5964 215.768 92.9462 215.437 93.1953C215.106 93.4444 214.703 93.5794 214.289 93.58H214.169C213.737 93.5591 213.325 93.3906 213.002 93.1025C212.679 92.8144 212.465 92.4243 212.395 91.9973L206.299 55.3348L201.843 77.0294C201.741 77.4415 201.504 77.8076 201.169 78.0691C200.834 78.3306 200.422 78.4726 199.997 78.4723H191.424C191.167 78.4832 190.91 78.442 190.67 78.3511C190.429 78.2603 190.209 78.1217 190.023 77.9437C189.838 77.7658 189.69 77.5521 189.589 77.3155C189.488 77.0789 189.436 76.8244 189.436 76.5672C189.436 76.31 189.488 76.0555 189.589 75.8189C189.69 75.5824 189.838 75.3687 190.023 75.1907C190.209 75.0127 190.429 74.8741 190.67 74.7833C190.91 74.6925 191.167 74.6512 191.424 74.6621H198.496L204.808 45.4938C204.911 45.0626 205.161 44.6807 205.516 44.4135C205.87 44.1463 206.305 44.0103 206.749 44.0289C207.192 44.0474 207.615 44.2193 207.945 44.5151C208.276 44.8109 208.493 45.2124 208.56 45.6507L214.787 83.05L220.088 64.5584C220.199 64.169 220.432 63.8257 220.754 63.5798C221.075 63.3339 221.468 63.1985 221.873 63.194H221.91C222.311 63.1941 222.702 63.3208 223.027 63.556C223.351 63.7913 223.593 64.123 223.718 64.5039L227.099 74.6723H231.732C232.062 73.6717 232.661 72.7816 233.465 72.1001C234.268 71.4187 235.244 70.9724 236.285 70.8106C237.326 70.6488 238.392 70.7777 239.364 71.1832C240.337 71.5886 241.178 72.2548 241.796 73.1082C242.414 73.9616 242.783 74.969 242.865 76.0193C242.946 77.0696 242.735 78.1219 242.256 79.06C241.777 79.9982 241.048 80.7857 240.149 81.3357C239.25 81.8857 238.217 82.1767 237.164 82.1768L237.153 82.1631Z" fill="#0079E9"/>
</g>
<defs>
<linearGradient id="paint0_linear" x1="121.567" y1="264.316" x2="121.567" y2="54.4172" gradientUnits="userSpaceOnUse">
<stop stop-color="#808080" stop-opacity="0.25"/>
<stop offset="0.54" stop-color="#808080" stop-opacity="0.12"/>
<stop offset="1" stop-color="#808080" stop-opacity="0.1"/>
</linearGradient>
<linearGradient id="paint1_linear" x1="76153.1" y1="158371" x2="76153.1" y2="50628.4" gradientUnits="userSpaceOnUse">
<stop stop-color="#808080" stop-opacity="0.25"/>
<stop offset="0.54" stop-color="#808080" stop-opacity="0.12"/>
<stop offset="1" stop-color="#808080" stop-opacity="0.1"/>
</linearGradient>
<clipPath id="clip0">
<rect width="377" height="267" fill="white"/>
</clipPath>
</defs>
</svg>
